<svg width="231" height="70" viewBox="0 0 231 70" fill="none" xmlns="http://www.w3.org/2000/svg">
<path d="M47.6964 50.1947C45.9702 50.1947 44.5166 48.7865 44.5166 47.0149V36.7943L34.9774 27.0733L25.4381 36.7943V47.0149C25.4381 48.7411 24.0299 50.1947 22.2584 50.1947C20.5322 50.1947 19.0786 48.7865 19.0786 47.0149V35.9766C19.0786 34.841 19.5329 33.7962 20.3051 32.9786L31.9793 21.0772C32.797 20.2595 33.8872 19.8053 34.9774 19.8053C36.113 19.8053 37.1578 20.2595 37.9754 21.0772L49.6497 32.9786C50.4219 33.7962 50.8761 34.841 50.8761 35.9766V47.0149C50.8761 48.7411 49.468 50.1947 47.6964 50.1947Z" fill="black"/>
<path d="M53.4199 70H16.5801C7.44971 70 0 62.5503 0 53.4199V16.5801C0 7.44971 7.44971 0 16.5801 0H53.4653C62.5957 0 70.0454 7.44971 70.0454 16.5801V53.4653C70 62.5503 62.5503 70 53.4199 70ZM16.5801 6.31408C10.9474 6.31408 6.35951 10.902 6.35951 16.5347V53.4199C6.35951 59.0526 10.9474 63.6405 16.5801 63.6405H53.4653C59.098 63.6405 63.6859 59.0526 63.6859 53.4199V16.5801C63.6859 10.9474 59.098 6.35951 53.4653 6.35951H16.5801V6.31408Z" fill="black"/>
<path d="M99.9352 46.6061L98.4816 42.8358H86.3077L84.8541 46.6969C84.309 48.1959 83.8093 49.1953 83.4005 49.7404C82.9917 50.2855 82.3557 50.5126 81.4472 50.5126C80.675 50.5126 79.9936 50.2401 79.4031 49.695C78.8126 49.1499 78.54 48.5139 78.54 47.7871C78.54 47.3783 78.5855 46.9695 78.7217 46.5152C78.858 46.061 79.0851 45.4704 79.4031 44.6982L87.0799 25.2109C87.3071 24.6658 87.5796 23.9844 87.8522 23.2122C88.1701 22.4399 88.4881 21.7586 88.8515 21.2589C89.2149 20.7592 89.6692 20.305 90.2143 19.987C90.7594 19.669 91.4862 19.4873 92.3038 19.4873C93.1669 19.4873 93.8483 19.669 94.4388 19.987C94.9839 20.305 95.4836 20.7138 95.8016 21.2135C96.165 21.7131 96.4375 22.2582 96.6646 22.8488C96.8918 23.4393 97.2097 24.2115 97.5731 25.1655L105.386 44.5165C106.022 45.9701 106.295 47.0603 106.295 47.7417C106.295 48.4231 106.022 49.059 105.432 49.6496C104.841 50.2401 104.16 50.5126 103.342 50.5126C102.888 50.5126 102.434 50.4218 102.116 50.2401C101.752 50.0584 101.48 49.8313 101.253 49.5587C101.025 49.2861 100.753 48.8319 100.526 48.1959C100.344 47.6054 100.117 47.0603 99.9352 46.6061ZM87.8976 38.2933H96.8463L92.3038 25.9377L87.8976 38.2933Z" fill="black"/>
<path d="M119.013 37.1577H116.878V46.7878C116.878 48.0597 116.606 48.9682 116.061 49.6041C115.516 50.1946 114.789 50.5126 113.88 50.5126C112.926 50.5126 112.154 50.1946 111.609 49.5587C111.064 48.9227 110.792 48.0142 110.792 46.7878V23.7118C110.792 22.3945 111.064 21.4406 111.655 20.8501C112.245 20.2595 113.199 19.987 114.516 19.987H124.374C125.736 19.987 126.917 20.0324 127.871 20.1687C128.825 20.305 129.688 20.5321 130.506 20.8955C131.46 21.3043 132.278 21.8494 133.004 22.5762C133.731 23.303 134.276 24.1661 134.64 25.12C135.003 26.0739 135.185 27.1187 135.185 28.2089C135.185 30.4347 134.549 32.2517 133.277 33.5691C132.005 34.8864 130.097 35.8403 127.553 36.4309C128.644 37.0214 129.643 37.839 130.642 38.9747C131.642 40.1103 132.505 41.2913 133.277 42.5632C134.049 43.8351 134.64 44.9708 135.094 45.9701C135.503 46.9695 135.73 47.6963 135.73 48.0597C135.73 48.4685 135.594 48.8319 135.366 49.2407C135.094 49.6495 134.776 49.9221 134.322 50.1492C133.867 50.3763 133.368 50.4672 132.823 50.4672C132.141 50.4672 131.551 50.2855 131.097 49.9675C130.642 49.6495 130.233 49.2407 129.915 48.741C129.597 48.2414 129.143 47.5146 128.553 46.5606L126.1 42.5178C125.237 41.0188 124.464 39.8832 123.738 39.1109C123.056 38.3387 122.329 37.7936 121.648 37.5211C121.012 37.2939 120.104 37.1577 119.013 37.1577ZM122.511 24.5749H116.924V32.7968H122.375C123.828 32.7968 125.055 32.6606 126.054 32.4334C127.054 32.1609 127.826 31.7521 128.326 31.1615C128.871 30.571 129.098 29.7079 129.098 28.6632C129.098 27.8455 128.871 27.1187 128.462 26.4828C128.053 25.8468 127.462 25.3926 126.69 25.0746C126.009 24.7112 124.601 24.5749 122.511 24.5749Z" fill="black"/>
<path d="M165.983 40.5191C165.983 41.4731 165.756 42.5179 165.257 43.6081C164.802 44.6983 164.03 45.7885 163.031 46.8787C162.031 47.9689 160.714 48.8319 159.17 49.4679C157.58 50.1493 155.763 50.4672 153.673 50.4672C152.083 50.4672 150.675 50.331 149.358 50.013C148.041 49.695 146.905 49.2408 145.815 48.6048C144.77 47.9689 143.771 47.1512 142.907 46.1064C142.135 45.1525 141.454 44.1077 140.863 42.9267C140.318 41.7456 139.864 40.5191 139.591 39.2018C139.319 37.8845 139.183 36.4763 139.183 34.9773C139.183 32.5698 139.546 30.3894 140.227 28.4815C140.909 26.5737 141.954 24.9384 143.225 23.5756C144.543 22.2129 146.087 21.1681 147.813 20.4867C149.585 19.7599 151.447 19.4419 153.446 19.4419C155.854 19.4419 158.034 19.9416 159.942 20.8955C161.85 21.8495 163.303 23.0759 164.303 24.4841C165.302 25.8923 165.802 27.255 165.802 28.5269C165.802 29.2083 165.575 29.8443 165.075 30.3894C164.575 30.9345 163.985 31.207 163.303 31.207C162.531 31.207 161.941 31.0253 161.577 30.6619C161.259 30.2985 160.805 29.6626 160.351 28.7541C159.578 27.255 158.625 26.1648 157.534 25.438C156.444 24.7112 155.127 24.3478 153.582 24.3478C151.084 24.3478 149.085 25.3018 147.632 27.2096C146.133 29.1175 145.406 31.7975 145.406 35.2953C145.406 37.6119 145.724 39.5652 146.405 41.1097C147.041 42.6541 147.995 43.7898 149.176 44.562C150.357 45.3342 151.765 45.6976 153.401 45.6976C155.127 45.6976 156.626 45.2434 157.807 44.3803C159.033 43.5172 159.942 42.2453 160.532 40.5646C160.805 39.7923 161.123 39.111 161.486 38.6113C161.85 38.1116 162.486 37.8845 163.303 37.8845C164.03 37.8845 164.666 38.157 165.166 38.6567C165.756 39.1564 165.983 39.7923 165.983 40.5191Z" fill="black"/>
<path d="M177.385 23.1667V44.9708H189.695C190.694 44.9708 191.421 45.1979 191.966 45.6976C192.511 46.1973 192.738 46.7878 192.738 47.5146C192.738 48.2414 192.466 48.8319 191.966 49.2862C191.467 49.7404 190.694 49.9675 189.695 49.9675H175.023C173.705 49.9675 172.751 49.695 172.161 49.1045C171.57 48.5139 171.298 47.56 171.298 46.2427V23.1667C171.298 21.9403 171.57 21.0318 172.116 20.3958C172.661 19.7599 173.387 19.4873 174.296 19.4873C175.204 19.4873 175.931 19.8053 176.522 20.3958C177.112 21.0318 177.385 21.9403 177.385 23.1667Z" fill="black"/>
<path d="M197.008 46.7878V23.1667C197.008 21.9403 197.281 21.0318 197.826 20.3958C198.371 19.7599 199.098 19.4873 200.006 19.4873C200.915 19.4873 201.642 19.8053 202.232 20.3958C202.777 20.9863 203.095 21.9403 203.095 23.1667V46.7878C203.095 48.0142 202.823 48.9682 202.232 49.5587C201.687 50.1946 200.915 50.4672 200.006 50.4672C199.143 50.4672 198.416 50.1492 197.871 49.5587C197.281 48.9682 197.008 48.0142 197.008 46.7878Z" fill="black"/>
<path d="M227.761 24.7112H215.814V32.388H225.808C226.716 32.388 227.443 32.6151 227.898 33.024C228.352 33.4328 228.579 33.9779 228.579 34.7047C228.579 35.3861 228.352 35.9312 227.898 36.34C227.443 36.7488 226.762 36.976 225.853 36.976H215.86V46.8332C215.86 48.1051 215.587 49.0136 214.997 49.6041C214.452 50.1946 213.725 50.5126 212.816 50.5126C211.908 50.5126 211.181 50.1946 210.636 49.6041C210.091 48.9682 209.773 48.0597 209.773 46.8332V23.7118C209.773 22.8488 209.909 22.122 210.182 21.5769C210.454 21.0318 210.863 20.6229 211.408 20.3504C211.953 20.0778 212.68 19.987 213.543 19.987H227.852C228.806 19.987 229.533 20.2141 230.033 20.6229C230.487 21.0318 230.759 21.6223 230.759 22.3037C230.759 23.0305 230.532 23.5756 230.033 24.0298C229.487 24.4841 228.761 24.7112 227.761 24.7112Z" fill="black"/>
</svg>
