<svg width="17" height="17" viewBox="0 0 17 17" fill="none" xmlns="http://www.w3.org/2000/svg">
<path d="M10.2946 3.85539C10.9962 3.99142 11.6411 4.33242 12.1466 4.83474C12.6521 5.33706 12.9953 5.97785 13.1322 6.67508M10.2946 1C11.7524 1.16093 13.1118 1.80963 14.1496 2.83959C15.1874 3.86955 15.8419 5.21956 16.0057 6.66795M15.2873 12.3644V14.506C15.2882 14.7048 15.2472 14.9016 15.167 15.0837C15.0869 15.2659 14.9693 15.4294 14.8219 15.5638C14.6745 15.6982 14.5004 15.8005 14.3109 15.8642C14.1214 15.9279 13.9205 15.9516 13.7213 15.9337C11.5107 15.695 9.38724 14.9444 7.52159 13.7422C5.78585 12.6462 4.31424 11.1839 3.21128 9.45909C1.99719 7.59681 1.24164 5.47653 1.00583 3.27003C0.987879 3.07263 1.01149 2.87368 1.07516 2.68584C1.13882 2.498 1.24115 2.32539 1.37563 2.17901C1.51011 2.03262 1.67379 1.91566 1.85625 1.83557C2.03871 1.75549 2.23595 1.71403 2.43542 1.71385H4.59058C4.93922 1.71044 5.27721 1.83312 5.54155 2.05902C5.80589 2.28492 5.97856 2.59862 6.02735 2.94166C6.11831 3.627 6.28701 4.29992 6.53022 4.94757C6.62687 5.20308 6.64779 5.48076 6.5905 5.74771C6.5332 6.01467 6.40009 6.25971 6.20695 6.45379L5.2946 7.36038C6.31726 9.14753 7.8064 10.6273 9.60491 11.6435L10.5173 10.7369C10.7126 10.5449 10.9592 10.4127 11.2278 10.3557C11.4965 10.2988 11.7759 10.3196 12.0331 10.4156C12.6848 10.6573 13.362 10.8249 14.0517 10.9153C14.4007 10.9643 14.7194 11.1389 14.9472 11.4061C15.175 11.6733 15.2961 12.0144 15.2873 12.3644Z" stroke="white" stroke-linecap="round" stroke-linejoin="round"/>
</svg>
