<svg width="311" height="304" viewBox="0 0 311 304" fill="none" xmlns="http://www.w3.org/2000/svg">
<circle cx="162" cy="180" r="124" fill="#905D11" fill-opacity="0.42"/>
<circle cx="187" cy="124" r="124" fill="#11907C" fill-opacity="0.13"/>
<circle cx="124" cy="124" r="124" fill="#0E263D" fill-opacity="0.21"/>
<circle cx="161" cy="150" r="124" fill="white"/>
<path d="M200.529 206.884V122.708H155.446L140.068 136.091V206.884H200.529Z" fill="#E4E4E4"/>
<path d="M194.737 188.212L217.379 165.713C219.4 163.705 222.677 163.705 224.698 165.713C226.719 167.721 226.719 170.977 224.698 172.985L202.056 195.484L191.991 198.213L194.737 188.212Z" fill="white"/>
<path d="M225.329 165.085C223.037 162.805 219.04 162.805 216.748 165.085L207.958 173.82V115.327H199.262V106.658H190.319V99H135.013L115 116.415V197.94H123.942V205.6H132.639V214.267H207.958V190.872L221 177.911L221.001 177.912L225.329 173.61C227.675 171.281 227.708 167.451 225.329 165.085ZM224.067 166.338C225.761 168.021 225.707 170.727 224.067 172.356L221 175.404L214.944 169.386L218.01 166.338C219.628 164.731 222.448 164.731 224.067 166.338ZM116.785 196.166V117.218L135.684 100.773H188.534V106.658H143.956L123.942 124.074V196.166H116.785ZM125.727 203.826V124.878L144.627 108.431H197.477V115.327H152.652L132.639 132.742V203.826H125.727V203.826ZM206.173 212.494H134.423V133.545L153.323 117.1H206.173V175.593L194.106 187.584C193.996 187.693 193.917 187.828 193.876 187.977L191.129 197.978C191.045 198.285 191.133 198.613 191.359 198.839C191.583 199.06 191.91 199.152 192.226 199.067L202.291 196.338C202.44 196.296 202.577 196.218 202.687 196.109L206.173 192.645V212.494H206.173ZM201.592 194.689L193.263 196.947L195.535 188.671L213.682 170.64L216.079 173.022L211.003 178.066C210.655 178.412 210.655 178.973 211.003 179.32C211.352 179.666 211.916 179.666 212.265 179.32L217.341 174.275L219.738 176.658L201.592 194.689Z" fill="#2F1854"/>
<path d="M178.975 196.726H147.892C147.399 196.726 147 197.123 147 197.613C147 198.103 147.399 198.5 147.892 198.5H178.975C179.468 198.5 179.867 198.103 179.867 197.613C179.867 197.123 179.468 196.726 178.975 196.726ZM188.535 185.773H147.892C147.399 185.773 147 186.169 147 186.659C147 187.149 147.399 187.546 147.892 187.546H188.535C189.028 187.546 189.427 187.149 189.427 186.659C189.427 186.169 189.028 185.773 188.535 185.773ZM147.892 176.591H193.501C193.994 176.591 194.394 176.194 194.394 175.704C194.394 175.214 193.994 174.817 193.501 174.817H147.892C147.399 174.817 147 175.214 147 175.704C147 176.194 147.399 176.591 147.892 176.591ZM147.892 165.637H193.501C193.994 165.637 194.394 165.241 194.394 164.751C194.394 164.261 193.994 163.864 193.501 163.864H147.892C147.399 163.864 147 164.261 147 164.751C147 165.241 147.399 165.637 147.892 165.637ZM147.892 154.682H193.501C193.994 154.682 194.394 154.286 194.394 153.795C194.394 153.305 193.994 152.909 193.501 152.909H147.892C147.399 152.909 147 153.305 147 153.795C147 154.286 147.399 154.682 147.892 154.682ZM147.892 143.729H193.501C193.994 143.729 194.394 143.332 194.394 142.842C194.394 142.352 193.994 141.955 193.501 141.955H147.892C147.399 141.955 147 142.352 147 142.842C147 143.332 147.399 143.729 147.892 143.729ZM169.19 132.773H193.501C193.994 132.773 194.394 132.377 194.394 131.887C194.394 131.397 193.994 131 193.501 131H169.19C168.697 131 168.298 131.397 168.298 131.887C168.298 132.377 168.697 132.773 169.19 132.773Z" fill="#2F1854"/>
</svg>
