<svg width="115" height="118" viewBox="0 0 115 118" fill="none" xmlns="http://www.w3.org/2000/svg">
<path d="M20.8316 0.907471H76.1912V100.378H0.912659V18.2389L20.8316 0.907471Z" fill="#11907C"/>
<path d="M29.9864 8.74805H85.3459V108.218H10.0674V26.0795L29.9864 8.74805Z" fill="#E4E4E4"/>
<path d="M38.889 17.6211H94.2486V117.091H18.97V34.9526L38.889 17.6211Z" fill="white"/>
<path d="M87.5567 110.442V24.2695H41.4048L25.6622 37.9702V110.442H87.5567Z" fill="#E4E4E4"/>
<path d="M81.6275 91.3269L104.807 68.2942C106.876 66.2385 110.23 66.2385 112.299 68.2942C114.368 70.35 114.368 73.6832 112.299 75.739L89.1196 98.7717L78.8161 101.566L81.6275 91.3269Z" fill="white"/>
<path d="M108.514 79.5003L112.299 75.739C114.367 73.6832 114.367 70.3502 112.299 68.2942C110.23 66.2385 106.875 66.2385 104.807 68.2942L101.022 72.0555L108.514 79.5003Z" fill="#11907C"/>
<path d="M112.945 67.6514C110.599 65.3183 106.507 65.3183 104.161 67.6514L95.1618 76.5936V16.7142H86.2599V7.83938H77.1048V0H20.4879L0 17.8276V101.286H9.15437V109.127H18.057V118H95.1618V94.0498L108.514 80.7823L108.514 80.7828L112.945 76.379C115.346 73.9947 115.381 70.0737 112.945 67.6514ZM111.653 68.9349C113.387 70.6579 113.332 73.4272 111.653 75.0956L108.513 78.2153L102.313 72.0552L105.452 68.9349C107.108 67.2898 109.996 67.2898 111.653 68.9349ZM1.82693 99.4702V18.6502L21.1746 1.81538H75.2778V7.83938H29.643L9.15437 25.6688V99.4702H1.82693ZM10.9813 107.312V26.4914L30.3299 9.65476H84.4329V16.7142H38.5449L18.057 34.5419V107.312H10.9813ZM93.3348 116.185H19.8839V35.3644L39.2316 18.5296H93.3348V78.409L80.9817 90.6841C80.8692 90.7957 80.7881 90.9341 80.7462 91.0866L77.9344 101.325C77.8478 101.638 77.9381 101.975 78.1699 102.206C78.3992 102.432 78.7335 102.526 79.0567 102.44L89.3607 99.6457C89.5133 99.6032 89.6534 99.5234 89.7658 99.4117L93.3348 95.8652V116.185H93.3348ZM88.6453 97.958L80.1181 100.27L82.4447 91.7975L101.021 73.3381L103.475 75.7765L98.2794 80.9406C97.9226 81.2951 97.9226 81.8695 98.2794 82.224C98.6362 82.5786 99.2142 82.5786 99.5712 82.224L104.767 77.06L107.222 79.499L88.6453 97.958Z" fill="#0E263D"/>
<path d="M65.0834 100.09H33.2638C32.759 100.09 32.3503 100.496 32.3503 100.998C32.3503 101.5 32.759 101.906 33.2638 101.906H65.0834C65.5884 101.906 65.9969 101.5 65.9969 100.998C65.9969 100.496 65.5884 100.09 65.0834 100.09ZM74.8703 88.8771H33.2638C32.759 88.8771 32.3503 89.283 32.3503 89.7848C32.3503 90.2864 32.759 90.6925 33.2638 90.6925H74.8703C75.375 90.6925 75.7837 90.2864 75.7837 89.7848C75.7837 89.283 75.375 88.8771 74.8703 88.8771ZM33.2638 79.4774H79.9541C80.4588 79.4774 80.8675 79.0715 80.8675 78.5697C80.8675 78.0681 80.4588 77.662 79.9541 77.662H33.2638C32.759 77.662 32.3503 78.0681 32.3503 78.5697C32.3503 79.0715 32.759 79.4774 33.2638 79.4774ZM33.2638 68.2643H79.9541C80.4588 68.2643 80.8675 67.8582 80.8675 67.3566C80.8675 66.8549 80.4588 66.4489 79.9541 66.4489H33.2638C32.759 66.4489 32.3503 66.8549 32.3503 67.3566C32.3503 67.8582 32.759 68.2643 33.2638 68.2643ZM33.2638 57.0492H79.9541C80.4588 57.0492 80.8675 56.6433 80.8675 56.1415C80.8675 55.64 80.4588 55.2339 79.9541 55.2339H33.2638C32.759 55.2339 32.3503 55.64 32.3503 56.1415C32.3503 56.6433 32.759 57.0492 33.2638 57.0492ZM33.2638 45.8362H79.9541C80.4588 45.8362 80.8675 45.4301 80.8675 44.9285C80.8675 44.4267 80.4588 44.0208 79.9541 44.0208H33.2638C32.759 44.0208 32.3503 44.4267 32.3503 44.9285C32.3503 45.4301 32.759 45.8362 33.2638 45.8362ZM55.0665 34.621H79.9541C80.4588 34.621 80.8675 34.2151 80.8675 33.7134C80.8675 33.2118 80.4588 32.8057 79.9541 32.8057H55.0665C54.5616 32.8057 54.1531 33.2118 54.1531 33.7134C54.1531 34.2151 54.5616 34.621 55.0665 34.621Z" fill="#0E263D"/>
</svg>
