<svg width="101" height="107" viewBox="0 0 101 107" fill="none" xmlns="http://www.w3.org/2000/svg">
<path fill-rule="evenodd" clip-rule="evenodd" d="M40.1333 10.2869L44.2451 13.5692L42.8611 18.6249C42.6267 19.4817 42.9426 20.3724 43.6656 20.8944C44.0421 21.1661 44.4798 21.3026 44.9187 21.3024C45.3234 21.3024 45.7291 21.1862 46.0881 20.9529L50.5017 18.0836L54.9156 20.9529C55.6639 21.4392 56.6147 21.4169 57.3392 20.8938C58.0616 20.3718 58.377 19.4813 58.1426 18.6247L56.7586 13.5692L60.8702 10.2871C61.5671 9.73145 61.839 8.82656 61.5633 7.98206C61.2873 7.13694 60.5316 6.56287 59.6381 6.51982L54.3689 6.26465L52.4965 1.36695C52.4965 1.36695 52.4965 1.36695 52.4965 1.36674V1.36653C52.1788 0.536457 51.396 0 50.5019 0C49.6075 0 48.8245 0.536457 48.5072 1.36653L46.6348 6.26465L41.3658 6.51982C40.4721 6.56287 39.7163 7.13694 39.441 7.98039C39.1639 8.82572 39.4362 9.73145 40.1333 10.2869ZM47.6049 9.56531C48.4523 9.52477 49.1945 8.98936 49.4958 8.2015L50.5017 5.5702L51.5075 8.2017C51.8088 8.98957 52.551 9.52477 53.3978 9.56531L56.2283 9.7024L54.0194 11.4656C53.3582 11.9931 53.075 12.8593 53.2972 13.6726L54.0407 16.3886L51.6708 14.848C51.3154 14.6166 50.908 14.5008 50.5008 14.5008C50.0938 14.5008 49.6873 14.6164 49.3327 14.8471L46.9616 16.3886L47.7052 13.6718C47.9275 12.8582 47.6436 11.9922 46.9828 11.4656L44.7742 9.7024L47.6049 9.56531ZM63.8633 14.8068L67.9754 18.0888L66.5914 23.1445C66.3569 24.0014 66.6728 24.892 67.3958 25.4141C67.7723 25.6858 68.21 25.8222 68.649 25.822C69.0536 25.822 69.4593 25.7058 69.8183 25.4726L74.2321 22.6033L78.6461 25.4726C79.394 25.9587 80.344 25.9361 81.0696 25.4135C81.7922 24.8914 82.1077 24.0007 81.873 23.1445L80.489 18.0888L84.6006 14.807C85.298 14.2503 85.5699 13.345 85.2938 12.5017C85.0177 11.6566 84.262 11.0825 83.3686 11.0395L78.0994 10.7843L76.227 5.8866C76.227 5.8866 76.227 5.8866 76.227 5.88639V5.88619C75.9094 5.05611 75.1266 4.51965 74.2325 4.51965C73.3382 4.51965 72.5552 5.05611 72.2378 5.88619L70.3654 10.7843L65.0965 11.0395C64.2028 11.0825 63.4469 11.6566 63.1717 12.5C62.8947 13.3443 63.1662 14.2494 63.8633 14.8068ZM71.3353 14.0848C72.1827 14.0442 72.9249 13.5088 73.2262 12.7209L74.2319 10.0896L75.2379 12.7211C75.5393 13.509 76.2815 14.0442 77.1282 14.0848L79.9587 14.2218L77.7496 15.9852C77.0878 16.5133 76.8048 17.3802 77.0277 18.1921L77.7711 20.908L75.4012 19.3674C75.046 19.1361 74.6386 19.0203 74.2315 19.0203C73.8245 19.0203 73.4179 19.1358 73.0629 19.3666L70.692 20.9078L71.4357 18.1917C71.6579 17.3787 71.3745 16.5127 70.7133 15.985L68.5044 14.2218L71.3353 14.0848ZM16.4027 14.8068L20.5145 18.0888L19.1311 23.1431C18.8956 24.0005 19.2111 24.8918 19.935 25.4143C20.3116 25.686 20.7495 25.8224 21.1883 25.8224C21.5931 25.8224 21.9989 25.7062 22.3574 25.4728L26.7712 22.6035L31.1852 25.4728C31.9335 25.9593 32.884 25.9365 33.6079 25.4143C34.3311 24.8925 34.6468 24.0016 34.4121 23.1447L33.0281 18.0891L37.141 14.8064C37.8375 14.2496 38.109 13.3445 37.8329 12.5019C37.5568 11.6568 36.8012 11.0827 35.9077 11.0397L30.6385 10.7845L28.7661 5.88681C28.7661 5.88681 28.7661 5.88681 28.7661 5.8866V5.88639C28.4485 5.05632 27.6657 4.51986 26.7716 4.51986C25.8765 4.51986 25.0932 5.05694 24.7774 5.88639L22.9048 10.7845L17.6356 11.0397C16.7429 11.0827 15.9873 11.6562 15.7101 12.5019C15.4343 13.346 15.7061 14.2507 16.4027 14.8068ZM23.8744 14.0848C24.7227 14.044 25.4653 13.508 25.7651 12.7209L26.7712 10.0899L27.7771 12.7211C28.0784 13.509 28.8206 14.0442 29.6674 14.0848L32.4979 14.2218L30.2877 15.9857C29.6276 16.5135 29.3448 17.3794 29.5668 18.1919L30.3102 20.9078L27.9404 19.3672C27.5849 19.1358 27.1775 19.0201 26.7704 19.0201C26.3634 19.0201 25.9568 19.1356 25.6023 19.3664L23.2313 20.9076L23.9748 18.1915C24.1972 17.3779 23.9134 16.5117 23.2524 15.9848L21.0435 14.2216L23.8744 14.0848ZM33.3013 40.6754C34.5643 39.3703 35.3435 37.5998 35.3435 35.6511C35.3435 31.6497 32.0654 28.394 28.0361 28.394C24.0068 28.394 20.7287 31.6495 20.7287 35.6511C20.7287 37.6004 21.5081 39.3716 22.772 40.6767C19.4956 42.1335 16.9191 44.9297 15.8006 48.5164C15.3981 49.8071 15.6283 51.1682 16.4317 52.2507C17.2353 53.3334 18.4767 53.9543 19.8375 53.9543H34.0365V55.2667C34.0365 58.3643 36.5743 60.8844 39.6933 60.8844H61.3104C64.429 60.8844 66.9668 58.3643 66.967 55.2667V53.955H81.1662C82.527 53.955 83.7682 53.3339 84.572 52.2513C85.3754 51.1686 85.6054 49.8075 85.2029 48.5168C84.0847 44.9301 81.5079 42.1339 78.2317 40.6771C79.4956 39.3718 80.275 37.6009 80.275 35.6515C80.275 31.6501 76.9969 28.3944 72.9676 28.3944C68.9383 28.3944 65.6602 31.6499 65.6602 35.6515C65.6602 37.6002 66.4392 39.3705 67.7022 40.6756C66.1225 41.3797 64.6985 42.4018 63.5147 43.695C61.6984 41.4041 59.2856 39.6157 56.5153 38.5478C58.4652 36.8711 59.7023 34.3978 59.7023 31.6413C59.7023 26.6032 55.5751 22.504 50.5019 22.504C45.4286 22.504 41.3012 26.603 41.3012 31.6413C41.3012 34.3978 42.5383 36.8711 44.4882 38.5478C41.7179 39.6157 39.3053 41.4041 37.4888 43.695C36.305 42.4016 34.881 41.3795 33.3013 40.6754ZM28.0361 31.7377C30.2088 31.7377 31.9766 33.4931 31.9766 35.6511C31.9766 37.809 30.209 39.5645 28.0361 39.5645C25.8632 39.5645 24.0956 37.809 24.0956 35.6511C24.0956 33.4931 25.8634 31.7377 28.0361 31.7377ZM19.1421 50.2668C19.0467 50.1383 18.9036 49.8687 19.0168 49.5053C20.2477 45.5591 23.8719 42.908 28.0359 42.908C31.0634 42.908 33.8284 44.3071 35.6061 46.6874C35.0083 47.9141 34.5559 49.2278 34.2775 50.6106H19.8375C19.4545 50.6108 19.2374 50.3952 19.1421 50.2668ZM69.0269 35.6515C69.0269 33.4937 70.7945 31.7381 72.9674 31.7381C75.1403 31.7381 76.9079 33.4935 76.9079 35.6515C76.9079 37.8094 75.1403 39.5649 72.9674 39.5649C70.7945 39.5649 69.0269 37.8092 69.0269 35.6515ZM72.9674 42.9084C77.1316 42.9084 80.7561 45.5597 81.9865 49.5059C82.0997 49.8692 81.9568 50.1387 81.8615 50.2675C81.7661 50.3958 81.549 50.6115 81.1658 50.6115H66.7258C66.4474 49.2286 65.9948 47.9148 65.3972 46.6878C67.1747 44.3077 69.9399 42.9084 72.9674 42.9084ZM50.5019 25.8477C53.7185 25.8477 56.3354 28.4468 56.3354 31.6413C56.3354 34.8358 53.7185 37.4347 50.5019 37.4347C47.2852 37.4347 44.6681 34.8358 44.6681 31.6413C44.6681 28.4468 47.2852 25.8477 50.5019 25.8477ZM50.5017 40.7782C57.2272 40.7782 62.8428 45.7574 63.5999 52.3744V55.2667C63.5997 56.5206 62.5726 57.5409 61.3102 57.5409H39.6933C38.4307 57.5409 37.4034 56.5208 37.4034 55.2669V52.3744C38.1605 45.7574 43.7761 40.7782 50.5017 40.7782ZM99.9614 68.0483C98.9964 66.4481 95.0376 61.6963 84.6124 67.7264L66.313 78.3114C65.4449 78.8134 64.5628 79.1753 63.6449 79.4006C63.973 78.8516 64.232 78.2374 64.414 77.5626C65.3574 74.0649 63.2651 70.4131 59.6505 69.2493C59.5781 69.2263 59.5047 69.2079 59.43 69.1943C54.176 68.2533 48.9882 66.3906 44.8196 64.8941C43.3695 64.3735 42.0003 63.8818 40.8351 63.5067C36.1267 61.9893 31.8779 63.8643 28.3414 65.8976L14.779 73.6958L13.3211 71.1375C12.7469 70.1293 11.8086 69.4029 10.6796 69.0924C9.55106 68.7818 8.3697 68.9248 7.355 69.4955L2.22071 72.3813C0.119988 73.5621 -0.62199 76.2199 0.567152 78.3064L15.662 104.795C16.4664 106.206 17.9519 107 19.4792 107C20.2091 107 20.9488 106.819 21.6281 106.437L26.7626 103.551C27.7775 102.98 28.5089 102.049 28.8216 100.928C29.1346 99.8064 28.9906 98.6338 28.4159 97.6257L27.0927 95.3039L30.1236 93.5662L53.5375 99.7966C54.8666 100.15 56.1715 100.327 57.4482 100.327C59.9935 100.327 62.4269 99.6248 64.7173 98.2244L97.9263 77.9164C100.98 76.0496 101.95 71.346 99.9614 68.0483ZM25.5776 100.035C25.5048 100.295 25.3369 100.51 25.1046 100.641L19.9701 103.527C19.7378 103.658 19.4655 103.69 19.2031 103.618C18.9409 103.545 18.7239 103.378 18.5924 103.148L3.49739 76.6594C3.36588 76.4287 3.33368 76.1582 3.40607 75.8976C3.47888 75.6373 3.64701 75.422 3.87933 75.2912L9.01362 72.4053C9.16492 72.3205 9.33326 72.277 9.50434 72.277C9.59651 72.277 9.6891 72.2896 9.78064 72.3148C10.0426 72.387 10.2596 72.5539 10.3911 72.7846L23.3458 95.5171C23.3465 95.5183 23.3469 95.5196 23.3477 95.5206C23.3481 95.5215 23.3488 95.5223 23.3492 95.5231L25.4861 99.2727C25.6178 99.5036 25.6502 99.7742 25.5776 100.035ZM96.1615 75.0692L62.9524 95.3773C60.3336 96.9787 57.4587 97.3793 54.4093 96.5668L30.3218 90.1571C29.8913 90.0422 29.431 90.1023 29.0445 90.3241L25.4346 92.3936L16.4376 76.6061L30.0287 68.7914C33.0681 67.0437 36.3553 65.5785 39.7964 66.6876C40.9083 67.0456 42.1905 67.5058 43.6751 68.0389C47.931 69.5669 53.2202 71.4658 58.7103 72.4632C60.5901 73.1178 61.6412 74.9207 61.1616 76.6976C60.531 79.0349 58.5666 79.3272 57.0031 79.1492C54.3106 78.5994 51.751 77.8738 49.0425 77.1056C47.7568 76.7409 46.4271 76.3637 45.0601 76C44.162 75.7612 43.2393 76.2905 42.9983 77.1823C42.7576 78.0742 43.2908 78.9908 44.1887 79.2299C45.529 79.5864 46.845 79.9596 48.1177 80.3207C50.9116 81.1132 53.5506 81.8618 56.3935 82.439C56.4044 82.4413 56.4154 82.4419 56.4261 82.444C56.4377 82.4461 56.4486 82.4494 56.4604 82.4513L58.7358 82.8187C62.1534 83.3623 65.1859 82.8327 68.0069 81.2014L86.3064 70.6165C91.5423 67.5885 95.567 67.2707 97.0726 69.7669C98.1086 71.4837 97.6488 74.16 96.1615 75.0692ZM10.6781 77.8278C10.8246 78.8225 10.1312 79.7471 9.12956 79.8925C8.12771 80.038 7.19697 79.3494 7.05051 78.3544C6.90405 77.3597 7.59742 76.4351 8.59928 76.2897C9.60072 76.1442 10.5317 76.8328 10.6781 77.8278Z" fill="url(#paint0_linear_557_215)"/>
<defs>
<linearGradient id="paint0_linear_557_215" x1="6.09852" y1="95.5208" x2="87.0972" y2="13.961" gradientUnits="userSpaceOnUse">
<stop stop-color="#0B7BAF"/>
<stop offset="1" stop-color="#0F8C84"/>
</linearGradient>
</defs>
</svg>
