<svg width="141" height="147" viewBox="0 0 141 147" fill="none" xmlns="http://www.w3.org/2000/svg">
<path d="M122.282 82.7965L103.702 96.6899C101.827 94.3801 99.3707 92.6123 96.585 91.5691C93.7994 90.5259 90.7858 90.2451 87.8554 90.7555L68.9477 94.0638C65.9196 94.5894 62.8121 94.4275 59.855 93.59L57.74 92.9881C52.3739 91.4468 46.7122 91.2419 41.2488 92.3912C35.7854 93.5406 30.6862 96.0092 26.3959 99.5819L25.5682 94.849C25.4568 94.2131 25.0973 93.6474 24.5689 93.2764C24.0405 92.9055 23.3864 92.7596 22.7504 92.8709L2.01457 96.4975C1.37862 96.6089 0.812961 96.9684 0.442001 97.4968C0.0710418 98.0252 -0.0748364 98.6793 0.0364513 99.3153L7.99518 144.817C8.10657 145.453 8.466 146.019 8.99442 146.39C9.52284 146.761 10.177 146.907 10.8129 146.795L31.5479 143.168C32.1837 143.057 32.7493 142.697 33.1203 142.169C33.4912 141.641 33.6372 140.986 33.526 140.351L33.1106 137.974L37.9944 134.009C39.9099 132.414 42.3704 131.627 44.8557 131.813L78.6687 134.285C78.7229 134.289 78.7774 134.291 78.8316 134.291C78.9006 134.291 78.9691 134.291 79.0382 134.291C86.4774 134.276 93.7206 131.905 99.7287 127.518C99.8216 127.45 99.9095 127.375 99.9919 127.294L140.269 87.859C140.712 87.4248 140.973 86.8378 140.998 86.2178C141.023 85.5977 140.811 84.9915 140.404 84.5229C138.184 81.9609 135.063 80.3521 131.689 80.0307C128.314 79.7092 124.946 80.6997 122.282 82.7965ZM12.3735 141.58L5.25229 100.874L21.191 98.0864L28.3123 138.792L12.3735 141.58ZM96.7134 123.65C91.5637 127.351 85.3814 129.341 79.0397 129.339H78.9414L45.2103 126.915C41.4763 126.641 37.7816 127.827 34.9055 130.224L32.1495 132.472L27.3883 105.259C31.0975 101.505 35.7494 98.8187 40.8553 97.483C45.9612 96.1473 51.3326 96.2114 56.4052 97.6686L58.5199 98.2721C62.1834 99.3098 66.0333 99.5107 69.7849 98.8597L88.6941 95.5523C91.3701 95.0881 94.1244 95.5564 96.4965 96.879C98.8687 98.2016 100.715 100.298 101.727 102.819L73.2913 107.792C72.9764 107.847 72.6754 107.964 72.4055 108.135C72.1356 108.307 71.9021 108.53 71.7184 108.791C71.5346 109.053 71.4042 109.348 71.3346 109.66C71.265 109.972 71.2575 110.295 71.3126 110.61C71.3677 110.925 71.4843 111.226 71.6557 111.496C71.8271 111.766 72.05 111.999 72.3116 112.183C72.5733 112.367 72.8686 112.497 73.1806 112.567C73.4927 112.636 73.8154 112.644 74.1303 112.589L105.213 107.153C105.849 107.042 106.415 106.682 106.785 106.154C107.156 105.626 107.302 104.971 107.191 104.335C106.985 103.159 106.653 102.008 106.2 100.902L125.221 86.6788C125.238 86.666 125.255 86.6532 125.271 86.6401C126.639 85.5525 128.315 84.9232 130.061 84.8412C131.807 84.7593 133.534 85.229 134.998 86.1836L96.7134 123.65Z" fill="white"/>
<path d="M110.671 2.43461C110.671 1.78891 110.414 1.16966 109.958 0.713079C109.501 0.256502 108.882 0 108.236 0H32.7633C32.1176 0 31.4984 0.256502 31.0418 0.713079C30.5852 1.16966 30.3287 1.78891 30.3287 2.43461V77.9074C30.3287 78.5531 30.5852 79.1723 31.0418 79.6289C31.4984 80.0855 32.1176 80.342 32.7633 80.342H108.236C108.882 80.342 109.501 80.0855 109.958 79.6289C110.414 79.1723 110.671 78.5531 110.671 77.9074V2.43461ZM61.0656 4.86921H79.9338V17.5316L71.3254 14.5188C70.7935 14.3356 70.2157 14.3356 69.6838 14.5188L61.0656 17.5316V4.86921ZM35.1979 4.86921H56.1964V20.9659C56.2009 21.3562 56.2981 21.7399 56.4801 22.0853C56.662 22.4307 56.9235 22.7278 57.2429 22.9522C57.5623 23.1766 57.9305 23.3218 58.3171 23.3759C58.7037 23.43 59.0977 23.3914 59.4664 23.2633L70.4949 19.395L81.5209 23.2633C81.7802 23.3542 82.0531 23.4006 82.3279 23.4005C82.8387 23.4007 83.3372 23.2441 83.7561 22.9519C84.0761 22.7281 84.338 22.4311 84.5201 22.0857C84.7022 21.7403 84.7992 21.3564 84.803 20.9659V4.86921H105.801V75.1684H35.1979V4.86921Z" fill="white"/>
<path d="M110.671 2.43461C110.671 1.78891 110.414 1.16966 109.958 0.713079C109.501 0.256502 108.882 0 108.236 0H32.7633C32.1176 0 31.4984 0.256502 31.0418 0.713079C30.5852 1.16966 30.3287 1.78891 30.3287 2.43461V77.9074C30.3287 78.5531 30.5852 79.1723 31.0418 79.6289C31.4984 80.0855 32.1176 80.342 32.7633 80.342H108.236C108.882 80.342 109.501 80.0855 109.958 79.6289C110.414 79.1723 110.671 78.5531 110.671 77.9074V2.43461ZM61.0656 4.86921H79.9338V17.5316L71.3254 14.5188C70.7935 14.3356 70.2157 14.3356 69.6838 14.5188L61.0656 17.5316V4.86921ZM35.1979 4.86921H56.1964V20.9659C56.2009 21.3562 56.2981 21.7399 56.4801 22.0853C56.662 22.4307 56.9235 22.7278 57.2429 22.9522C57.5623 23.1766 57.9305 23.3218 58.3171 23.3759C58.7037 23.43 59.0977 23.3914 59.4664 23.2633L70.4949 19.395L81.5209 23.2633C81.7802 23.3542 82.0531 23.4006 82.3279 23.4005C82.8387 23.4007 83.3372 23.2441 83.7561 22.9519C84.0761 22.7281 84.338 22.4311 84.5201 22.0857C84.7022 21.7403 84.7992 21.3564 84.803 20.9659V4.86921H105.801V75.1684H35.1979V4.86921Z" fill="#11907C"/>
<path d="M52.4438 41.6925H76.1029C76.7486 41.6925 77.3679 41.436 77.8245 40.9794C78.2811 40.5228 78.5376 39.9035 78.5376 39.2578C78.5376 38.6122 78.2811 37.9929 77.8245 37.5363C77.3679 37.0797 76.7486 36.8232 76.1029 36.8232H52.4438C51.7981 36.8232 51.1788 37.0797 50.7222 37.5363C50.2657 37.9929 50.0092 38.6122 50.0092 39.2578C50.0092 39.9035 50.2657 40.5228 50.7222 40.9794C51.1788 41.436 51.7981 41.6925 52.4438 41.6925Z" fill="#11907C"/>
<path d="M88.5556 49.3003H52.4438C51.7981 49.3003 51.1788 49.5568 50.7222 50.0134C50.2657 50.4699 50.0092 51.0892 50.0092 51.7349C50.0092 52.3806 50.2657 52.9998 50.7222 53.4564C51.1788 53.913 51.7981 54.1695 52.4438 54.1695H88.5556C89.2013 54.1695 89.8206 53.913 90.2772 53.4564C90.7338 52.9998 90.9903 52.3806 90.9903 51.7349C90.9903 51.0892 90.7338 50.4699 90.2772 50.0134C89.8206 49.5568 89.2013 49.3003 88.5556 49.3003Z" fill="#11907C"/>
</svg>
