<svg width="309" height="315" viewBox="0 0 309 315" fill="none" xmlns="http://www.w3.org/2000/svg">
<circle cx="125.795" cy="162.974" r="124" transform="rotate(90.8354 125.795 162.974)" fill="#905D11" fill-opacity="0.42"/>
<circle cx="181.424" cy="188.788" r="124" transform="rotate(90.8354 181.424 188.788)" fill="#11907C" fill-opacity="0.13"/>
<circle cx="182.343" cy="125.795" r="124" transform="rotate(90.8354 182.343 125.795)" fill="#0E263D" fill-opacity="0.21"/>
<circle cx="155.806" cy="162.411" r="124" transform="rotate(90.8354 155.806 162.411)" fill="white"/>
<path d="M191 130.757C190.97 130.492 190.912 130.231 190.827 129.979V129.719C190.688 129.423 190.502 129.151 190.278 128.912L172.944 111.622C172.706 111.398 172.433 111.213 172.136 111.075C172.049 111.063 171.962 111.063 171.876 111.075C171.582 110.907 171.258 110.799 170.922 110.758H159.222C156.924 110.758 154.719 111.669 153.094 113.29C151.469 114.911 150.556 117.11 150.556 119.403V122.285H147.667C145.368 122.285 143.164 123.195 141.538 124.817C139.913 126.438 139 128.637 139 130.93V159.746C139 162.039 139.913 164.238 141.538 165.859C143.164 167.481 145.368 168.391 147.667 168.391H170.778C173.076 168.391 175.281 167.481 176.906 165.859C178.531 164.238 179.444 162.039 179.444 159.746V156.865H182.333C184.632 156.865 186.836 155.954 188.462 154.333C190.087 152.711 191 150.512 191 148.22V130.93C191 130.93 191 130.93 191 130.757ZM173.667 120.584L181.149 128.048H176.556C175.789 128.048 175.055 127.744 174.513 127.204C173.971 126.663 173.667 125.93 173.667 125.166V120.584ZM173.667 159.746C173.667 160.511 173.362 161.244 172.821 161.784C172.279 162.324 171.544 162.628 170.778 162.628H147.667C146.9 162.628 146.166 162.324 145.624 161.784C145.082 161.244 144.778 160.511 144.778 159.746V130.93C144.778 130.165 145.082 129.432 145.624 128.892C146.166 128.351 146.9 128.048 147.667 128.048H150.556V148.22C150.556 150.512 151.469 152.711 153.094 154.333C154.719 155.954 156.924 156.865 159.222 156.865H173.667V159.746ZM185.222 148.22C185.222 148.984 184.918 149.717 184.376 150.257C183.834 150.798 183.1 151.101 182.333 151.101H159.222C158.456 151.101 157.721 150.798 157.179 150.257C156.638 149.717 156.333 148.984 156.333 148.22V119.403C156.333 118.639 156.638 117.906 157.179 117.365C157.721 116.825 158.456 116.521 159.222 116.521H167.889V125.166C167.889 127.459 168.802 129.658 170.427 131.279C172.053 132.9 174.257 133.811 176.556 133.811H185.222V141.015V148.22Z" fill="#11907C" fill-opacity="0.62"/>
<path fill-rule="evenodd" clip-rule="evenodd" d="M116.05 216.89C119.196 218.732 123.775 221.273 128.663 223.478C134.955 226.325 141.753 228.642 146.95 228.642C150.602 228.642 156.192 226.827 162.54 223.896C176.445 217.448 194.395 205.725 202.878 199.109C205.603 196.988 207.401 195.313 208.019 194.42C208.609 193.583 208.749 192.829 208.749 192.354C208.749 189.926 206.502 187.274 204.311 186.186C200.856 184.483 198.468 184.008 194.732 183.98C190.968 183.98 185.883 184.455 182.428 186.186H182.372C177.569 188.754 170.743 192.996 166.417 195.76C165.433 190.652 160.911 186.8 155.489 186.8H149.731C143.719 180.463 135.348 175.858 126.64 175.858C126.64 175.858 119.955 175.746 116.05 175.69V172.843C116.05 171.308 114.786 170.052 113.241 170.052H99.1955C97.6506 170.052 96.3865 171.308 96.3865 172.843V217.56C96.3865 219.095 97.6506 220.351 99.1955 220.351H113.241C114.786 220.351 116.05 219.095 116.05 217.56V216.918V216.89ZM160.995 197.965V197.853C160.995 194.839 158.523 192.382 155.489 192.382H148.495C147.68 192.382 146.922 192.047 146.388 191.433C141.388 185.795 134.197 181.412 126.64 181.44L116.05 181.273V210.386C118.55 211.95 124.477 215.467 130.994 218.425C136.5 220.938 142.399 223.087 146.95 223.087C150.04 223.087 154.759 221.356 160.152 218.844C173.692 212.564 191.165 201.147 199.423 194.727C200.743 193.722 201.979 192.578 202.738 191.88C202.457 191.573 202.12 191.322 201.783 191.182C199.227 189.926 197.457 189.591 194.676 189.591C191.726 189.591 187.709 189.842 184.956 191.182C177.569 195.09 165.321 203.073 165.321 203.073C164.872 203.38 164.338 203.52 163.804 203.52L135.18 203.687C133.635 203.687 132.371 202.459 132.343 200.924C132.343 199.389 133.579 198.132 135.124 198.105L160.967 197.965H160.995ZM110.432 175.606V214.741H102.005V175.606H110.432Z" fill="#0E263D"/>
<circle cx="125.795" cy="162.974" r="124" transform="rotate(90.8354 125.795 162.974)" fill="#905D11" fill-opacity="0.42"/>
<circle cx="181.424" cy="188.788" r="124" transform="rotate(90.8354 181.424 188.788)" fill="#11907C" fill-opacity="0.13"/>
<circle cx="182.343" cy="125.795" r="124" transform="rotate(90.8354 182.343 125.795)" fill="#0E263D" fill-opacity="0.21"/>
<circle cx="155.806" cy="162.411" r="124" transform="rotate(90.8354 155.806 162.411)" fill="white"/>
<path d="M191 130.757C190.97 130.492 190.912 130.231 190.827 129.979V129.719C190.688 129.423 190.502 129.151 190.278 128.912L172.944 111.622C172.706 111.398 172.433 111.213 172.136 111.075C172.049 111.063 171.962 111.063 171.876 111.075C171.582 110.907 171.258 110.799 170.922 110.758H159.222C156.924 110.758 154.719 111.669 153.094 113.29C151.469 114.911 150.556 117.11 150.556 119.403V122.285H147.667C145.368 122.285 143.164 123.195 141.538 124.817C139.913 126.438 139 128.637 139 130.93V159.746C139 162.039 139.913 164.238 141.538 165.859C143.164 167.481 145.368 168.391 147.667 168.391H170.778C173.076 168.391 175.281 167.481 176.906 165.859C178.531 164.238 179.444 162.039 179.444 159.746V156.865H182.333C184.632 156.865 186.836 155.954 188.462 154.333C190.087 152.711 191 150.512 191 148.22V130.93C191 130.93 191 130.93 191 130.757ZM173.667 120.584L181.149 128.048H176.556C175.789 128.048 175.055 127.744 174.513 127.204C173.971 126.663 173.667 125.93 173.667 125.166V120.584ZM173.667 159.746C173.667 160.511 173.362 161.244 172.821 161.784C172.279 162.324 171.544 162.628 170.778 162.628H147.667C146.9 162.628 146.166 162.324 145.624 161.784C145.082 161.244 144.778 160.511 144.778 159.746V130.93C144.778 130.165 145.082 129.432 145.624 128.892C146.166 128.351 146.9 128.048 147.667 128.048H150.556V148.22C150.556 150.512 151.469 152.711 153.094 154.333C154.719 155.954 156.924 156.865 159.222 156.865H173.667V159.746ZM185.222 148.22C185.222 148.984 184.918 149.717 184.376 150.257C183.834 150.798 183.1 151.101 182.333 151.101H159.222C158.456 151.101 157.721 150.798 157.179 150.257C156.638 149.717 156.333 148.984 156.333 148.22V119.403C156.333 118.639 156.638 117.906 157.179 117.365C157.721 116.825 158.456 116.521 159.222 116.521H167.889V125.166C167.889 127.459 168.802 129.658 170.427 131.279C172.053 132.9 174.257 133.811 176.556 133.811H185.222V141.015V148.22Z" fill="#11907C" fill-opacity="0.62"/>
<path fill-rule="evenodd" clip-rule="evenodd" d="M116.05 216.89C119.196 218.732 123.775 221.273 128.663 223.478C134.955 226.325 141.753 228.642 146.95 228.642C150.602 228.642 156.192 226.827 162.54 223.896C176.445 217.448 194.395 205.725 202.878 199.109C205.603 196.988 207.401 195.313 208.019 194.42C208.609 193.583 208.749 192.829 208.749 192.354C208.749 189.926 206.502 187.274 204.311 186.186C200.856 184.483 198.468 184.008 194.732 183.98C190.968 183.98 185.883 184.455 182.428 186.186H182.372C177.569 188.754 170.743 192.996 166.417 195.76C165.433 190.652 160.911 186.8 155.489 186.8H149.731C143.719 180.463 135.348 175.858 126.64 175.858C126.64 175.858 119.955 175.746 116.05 175.69V172.843C116.05 171.308 114.786 170.052 113.241 170.052H99.1955C97.6506 170.052 96.3865 171.308 96.3865 172.843V217.56C96.3865 219.095 97.6506 220.351 99.1955 220.351H113.241C114.786 220.351 116.05 219.095 116.05 217.56V216.918V216.89ZM160.995 197.965V197.853C160.995 194.839 158.523 192.382 155.489 192.382H148.495C147.68 192.382 146.922 192.047 146.388 191.433C141.388 185.795 134.197 181.412 126.64 181.44L116.05 181.273V210.386C118.55 211.95 124.477 215.467 130.994 218.425C136.5 220.938 142.399 223.087 146.95 223.087C150.04 223.087 154.759 221.356 160.152 218.844C173.692 212.564 191.165 201.147 199.423 194.727C200.743 193.722 201.979 192.578 202.738 191.88C202.457 191.573 202.12 191.322 201.783 191.182C199.227 189.926 197.457 189.591 194.676 189.591C191.726 189.591 187.709 189.842 184.956 191.182C177.569 195.09 165.321 203.073 165.321 203.073C164.872 203.38 164.338 203.52 163.804 203.52L135.18 203.687C133.635 203.687 132.371 202.459 132.343 200.924C132.343 199.389 133.579 198.132 135.124 198.105L160.967 197.965H160.995ZM110.432 175.606V214.741H102.005V175.606H110.432Z" fill="#0E263D"/>
</svg>
