<svg width="64" height="65" viewBox="0 0 64 65" fill="none" xmlns="http://www.w3.org/2000/svg">
<circle cx="37.5047" cy="30.726" r="25.2543" transform="rotate(-91.624 37.5047 30.726)" fill="#905D11" fill-opacity="0.42"/>
<circle cx="25.9598" cy="25.9599" r="25.2543" transform="rotate(-91.624 25.9598 25.9599)" fill="#11907C" fill-opacity="0.13"/>
<circle cx="26.3234" cy="38.7853" r="25.2543" transform="rotate(-91.624 26.3234 38.7853)" fill="#0E263D" fill-opacity="0.21"/>
<path d="M30.6873 5.85856C44.6292 5.46328 56.2518 16.445 56.6471 30.387C57.0424 44.3289 46.0606 55.9515 32.1187 56.3468C18.1768 56.7421 6.55417 45.7603 6.15889 31.8184C5.76361 17.8765 16.7453 6.25384 30.6873 5.85856Z" fill="white"/>
<mask id="path-5-inside-1_327_244" fill="white">
<path fill-rule="evenodd" clip-rule="evenodd" d="M35.1344 23.5955H27.7347C27.7347 23.5955 27.8401 24.0565 27.9331 24.4624C28.0131 24.812 28.396 25.0661 28.8428 25.0661H34.0263C34.4731 25.0661 34.856 24.812 34.936 24.4624C35.029 24.0565 35.1344 23.5955 35.1344 23.5955Z"/>
</mask>
<path d="M35.1344 23.5955L37.0841 24.0414L37.6435 21.5955H35.1344V23.5955ZM27.7347 23.5955V21.5955H25.2256L25.785 24.0414L27.7347 23.5955ZM27.9331 24.4624L29.8827 24.0162L29.8826 24.0159L27.9331 24.4624ZM34.936 24.4624L32.9865 24.0159L32.9864 24.0162L34.936 24.4624ZM35.1344 21.5955H27.7347V25.5955H35.1344V21.5955ZM27.7347 23.5955C25.785 24.0414 25.785 24.0414 25.785 24.0414C25.785 24.0414 25.785 24.0414 25.785 24.0414C25.785 24.0414 25.785 24.0414 25.785 24.0414C25.7851 24.0415 25.7851 24.0416 25.7851 24.0417C25.7851 24.0419 25.7852 24.0423 25.7853 24.0427C25.7855 24.0436 25.7858 24.0449 25.7862 24.0466C25.787 24.0501 25.7882 24.0553 25.7897 24.062C25.7928 24.0754 25.7973 24.095 25.803 24.1198C25.8143 24.1694 25.8304 24.2398 25.8494 24.3228C25.8874 24.4888 25.937 24.7057 25.9836 24.9089L29.8826 24.0159C29.8362 23.8131 29.7866 23.5966 29.7486 23.4306C29.7297 23.3477 29.7136 23.2774 29.7023 23.2279C29.6966 23.2031 29.6921 23.1835 29.689 23.1701C29.6875 23.1634 29.6863 23.1583 29.6855 23.1548C29.6851 23.1531 29.6848 23.1518 29.6846 23.1509C29.6845 23.1505 29.6845 23.1501 29.6844 23.1499C29.6844 23.1498 29.6844 23.1497 29.6844 23.1496C29.6844 23.1496 29.6843 23.1496 29.6843 23.1496C29.6843 23.1496 29.6843 23.1496 29.6843 23.1496C29.6843 23.1496 29.6843 23.1496 27.7347 23.5955ZM25.9835 24.9085C26.3341 26.4406 27.7761 27.0661 28.8428 27.0661V23.0661C28.9902 23.0661 29.1716 23.1064 29.3562 23.2288C29.5392 23.3503 29.7879 23.6021 29.8827 24.0162L25.9835 24.9085ZM28.8428 27.0661H34.0263V23.0661H28.8428V27.0661ZM34.0263 27.0661C35.093 27.0661 36.535 26.4406 36.8857 24.9085L32.9864 24.0162C33.0812 23.6021 33.3299 23.3503 33.5129 23.2288C33.6975 23.1064 33.879 23.0661 34.0263 23.0661V27.0661ZM36.8856 24.9089C36.9321 24.7057 36.9817 24.4888 37.0197 24.3228C37.0387 24.2398 37.0548 24.1694 37.0662 24.1198C37.0718 24.095 37.0763 24.0754 37.0794 24.062C37.0809 24.0553 37.0821 24.0501 37.0829 24.0466C37.0833 24.0449 37.0836 24.0436 37.0838 24.0427C37.0839 24.0423 37.084 24.0419 37.084 24.0417C37.0841 24.0416 37.0841 24.0415 37.0841 24.0414C37.0841 24.0414 37.0841 24.0414 37.0841 24.0414C37.0841 24.0414 37.0841 24.0414 37.0841 24.0414C37.0841 24.0414 37.0841 24.0414 35.1344 23.5955C33.1848 23.1496 33.1848 23.1496 33.1848 23.1496C33.1848 23.1496 33.1848 23.1496 33.1848 23.1496C33.1848 23.1496 33.1848 23.1496 33.1848 23.1496C33.1848 23.1497 33.1847 23.1498 33.1847 23.1499C33.1847 23.1501 33.1846 23.1505 33.1845 23.1509C33.1843 23.1518 33.184 23.1531 33.1836 23.1548C33.1828 23.1583 33.1816 23.1634 33.1801 23.1701C33.177 23.1835 33.1725 23.2031 33.1669 23.2279C33.1555 23.2774 33.1395 23.3477 33.1205 23.4306C33.0825 23.5966 33.033 23.8131 32.9865 24.0159L36.8856 24.9089Z" fill="black" mask="url(#path-5-inside-1_327_244)"/>
<path fill-rule="evenodd" clip-rule="evenodd" d="M24.4973 27.3026C24.4973 26.2874 23.669 25.4644 22.6474 25.4644C21.6257 25.4644 20.7974 26.2874 20.7974 27.3026C20.7974 28.4253 20.7974 29.8564 20.7974 30.9791C20.7974 31.9943 21.6257 32.8174 22.6474 32.8174C23.669 32.8174 24.4973 31.9943 24.4973 30.9791C24.4973 29.8564 24.4973 28.4253 24.4973 27.3026ZM42.0718 27.3026C42.0718 26.2874 41.2434 25.4644 40.2218 25.4644C39.2002 25.4644 38.3719 26.2874 38.3719 27.3026C38.3719 28.4253 38.3719 29.8564 38.3719 30.9791C38.3719 31.9943 39.2002 32.8174 40.2218 32.8174C41.2434 32.8174 42.0718 31.9943 42.0718 30.9791C42.0718 29.8564 42.0718 28.4253 42.0718 27.3026Z" fill="#89CDC2"/>
<path fill-rule="evenodd" clip-rule="evenodd" d="M28.6597 31.4386V32.5875C28.6597 32.8526 28.8128 33.0939 29.0528 33.2088C29.2933 33.3237 29.5787 33.2911 29.7868 33.1256L31.9091 31.4386H35.1345C35.3796 31.4386 35.615 31.3416 35.7884 31.1693C35.9619 30.9969 36.0595 30.763 36.0595 30.5194C36.0595 29.8356 36.0595 28.9054 36.0595 28.2216C36.0595 27.978 35.9619 27.7441 35.7884 27.5718C35.615 27.3995 35.3796 27.3025 35.1345 27.3025C33.3622 27.3025 29.507 27.3025 27.7347 27.3025C27.4896 27.3025 27.2542 27.3995 27.0808 27.5718C26.9073 27.7441 26.8098 27.978 26.8098 28.2216C26.8098 28.9054 26.8098 29.8356 26.8098 30.5194C26.8098 30.763 26.9073 30.9969 27.0808 31.1693C27.2542 31.3416 27.4896 31.4386 27.7347 31.4386H28.6597Z" fill="#0E263D"/>
<path fill-rule="evenodd" clip-rule="evenodd" d="M34.2095 39.2511V40.4C34.2095 40.6651 34.0564 40.9064 33.8164 41.0213C33.5759 41.1362 33.2905 41.1036 33.0824 40.9381L30.9601 39.2511H27.7347C27.4896 39.2511 27.2542 39.1541 27.0808 38.9818C26.9073 38.8094 26.8097 38.5755 26.8097 38.3319C26.8097 37.6481 26.8097 36.7179 26.8097 36.0341C26.8097 35.7905 26.9073 35.5566 27.0808 35.3843C27.2542 35.212 27.4896 35.115 27.7347 35.115C29.507 35.115 33.3622 35.115 35.1345 35.115C35.3796 35.115 35.615 35.212 35.7884 35.3843C35.9619 35.5566 36.0594 35.7905 36.0594 36.0341C36.0594 36.7179 36.0594 37.6481 36.0594 38.3319C36.0594 38.5755 35.9619 38.8094 35.7884 38.9818C35.615 39.1541 35.3796 39.2511 35.1345 39.2511H34.2095Z" fill="#11907C"/>
<path d="M38.1091 25.4642V43.3875C38.1091 43.9284 37.8929 44.447 37.5081 44.8292C37.1236 45.2113 36.6024 45.4257 36.059 45.4257H26.8096C26.2662 45.4257 25.745 45.2113 25.3606 44.8292C24.9757 44.447 24.7594 43.9285 24.7594 43.3875V25.4642C24.7594 24.9233 24.9757 24.4047 25.3605 24.0225L38.1091 25.4642ZM38.1091 25.4642C38.1091 24.9232 37.8929 24.4047 37.508 24.0225C37.1235 23.6404 36.6024 23.426 36.059 23.426H26.8096C26.2662 23.426 25.745 23.6404 25.3606 24.0225L38.1091 25.4642Z" stroke="black" stroke-width="0.4"/>
<path d="M20.5849 27.3025C20.5849 26.1732 21.507 25.2546 22.6474 25.2546C23.7877 25.2546 24.7098 26.1732 24.7098 27.3025V30.979C24.7098 32.1083 23.7877 33.0268 22.6474 33.0268C21.507 33.0268 20.5849 32.1083 20.5849 30.979V27.3025ZM38.1594 27.3025C38.1594 26.1732 39.0815 25.2546 40.2218 25.2546C41.3622 25.2546 42.2842 26.1732 42.2842 27.3025V30.979C42.2842 32.1083 41.3622 33.0268 40.2218 33.0268C39.0815 33.0268 38.1594 32.1083 38.1594 30.979V27.3025Z" stroke="black" stroke-width="0.5"/>
<path d="M40.6853 25.4644C40.6853 25.4644 40.6853 23.9676 40.6853 22.2474C40.6853 19.2019 38.2002 16.7327 35.1351 16.7327C32.8095 16.7327 30.0613 16.7327 27.7357 16.7327C24.6706 16.7327 22.1855 19.2019 22.1855 22.2474V25.4644" stroke="black" stroke-width="0.5"/>
<path d="M31.4345 29.8303C31.1791 29.8303 30.972 29.6245 30.972 29.3707C30.972 29.1169 31.1791 28.9111 31.4345 28.9111C31.6899 28.9111 31.897 29.1169 31.897 29.3707C31.897 29.6245 31.6899 29.8303 31.4345 29.8303Z" fill="white"/>
<path d="M31.4347 37.6428C31.6901 37.6428 31.8971 37.437 31.8971 37.1832C31.8971 36.9294 31.6901 36.7236 31.4347 36.7236C31.1792 36.7236 30.9722 36.9294 30.9722 37.1832C30.9722 37.437 31.1792 37.6428 31.4347 37.6428Z" fill="white"/>
<path d="M33.747 29.8303C33.4915 29.8303 33.2845 29.6245 33.2845 29.3707C33.2845 29.1169 33.4915 28.9111 33.747 28.9111C34.0024 28.9111 34.2094 29.1169 34.2094 29.3707C34.2094 29.6245 34.0024 29.8303 33.747 29.8303Z" fill="white"/>
<path d="M29.1222 37.6428C29.3777 37.6428 29.5847 37.437 29.5847 37.1832C29.5847 36.9294 29.3777 36.7236 29.1222 36.7236C28.8668 36.7236 28.6598 36.9294 28.6598 37.1832C28.6598 37.437 28.8668 37.6428 29.1222 37.6428Z" fill="white"/>
<path d="M29.051 29.8124C28.7956 29.8124 28.5885 29.6067 28.5885 29.3529C28.5885 29.0991 28.7956 28.8933 29.051 28.8933C29.3064 28.8933 29.5135 29.0991 29.5135 29.3529C29.5135 29.6067 29.3064 29.8124 29.051 29.8124Z" fill="white"/>
<path d="M33.7471 37.6428C34.0025 37.6428 34.2096 37.437 34.2096 37.1832C34.2096 36.9294 34.0025 36.7236 33.7471 36.7236C33.4917 36.7236 33.2846 36.9294 33.2846 37.1832C33.2846 37.437 33.4917 37.6428 33.7471 37.6428Z" fill="white"/>
<path fill-rule="evenodd" clip-rule="evenodd" d="M28.1972 31.898V32.5873C28.1972 33.029 28.452 33.4315 28.8525 33.6227C29.2531 33.8143 29.7285 33.7601 30.0758 33.4844L32.0714 31.898H35.1345C35.5026 31.898 35.8555 31.7528 36.1154 31.494C36.3758 31.2357 36.5219 30.8851 36.5219 30.5193C36.5219 29.8355 36.5219 28.9053 36.5219 28.2215C36.5219 27.8557 36.3758 27.505 36.1154 27.2467C35.8555 26.988 35.5026 26.8428 35.1345 26.8428C33.3622 26.8428 29.507 26.8428 27.7347 26.8428C27.3666 26.8428 27.0137 26.988 26.7538 27.2467C26.4934 27.505 26.3473 27.8557 26.3473 28.2215C26.3473 28.9053 26.3473 29.8355 26.3473 30.5193C26.3473 30.8851 26.4934 31.2357 26.7538 31.494C27.0137 31.7528 27.3666 31.898 27.7347 31.898H28.1972ZM29.1222 31.4384C29.1222 31.1847 28.915 30.9788 28.6597 30.9788H27.7347C27.6122 30.9788 27.4942 30.9306 27.4077 30.8442C27.3208 30.7583 27.2722 30.6411 27.2722 30.5193V28.2215C27.2722 28.0997 27.3208 27.9825 27.4077 27.8966C27.4942 27.8102 27.6122 27.7619 27.7347 27.7619H35.1345C35.257 27.7619 35.375 27.8102 35.4615 27.8966C35.5484 27.9825 35.597 28.0997 35.597 28.2215V30.5193C35.597 30.6411 35.5484 30.7583 35.4615 30.8442C35.375 30.9306 35.257 30.9788 35.1345 30.9788H31.9091C31.8041 30.9788 31.7024 31.0142 31.6201 31.0795L29.4977 32.7666C29.4283 32.8217 29.3335 32.8327 29.2531 32.7946C29.173 32.756 29.1222 32.6756 29.1222 32.5873V31.4384Z" fill="white"/>
<path fill-rule="evenodd" clip-rule="evenodd" d="M34.672 39.7107H35.1345C35.5026 39.7107 35.8555 39.5655 36.1154 39.3068C36.3758 39.0485 36.5219 38.6978 36.5219 38.332C36.5219 37.6482 36.5219 36.718 36.5219 36.0342C36.5219 35.6684 36.3758 35.3177 36.1154 35.0595C35.8555 34.8007 35.5026 34.6555 35.1345 34.6555C33.3622 34.6555 29.507 34.6555 27.7347 34.6555C27.3666 34.6555 27.0137 34.8007 26.7538 35.0595C26.4934 35.3177 26.3473 35.6684 26.3473 36.0342C26.3473 36.718 26.3473 37.6482 26.3473 38.332C26.3473 38.6978 26.4934 39.0485 26.7538 39.3068C27.0137 39.5655 27.3666 39.7107 27.7347 39.7107H30.7978L32.7934 41.2971C33.1407 41.5729 33.6161 41.6271 34.0167 41.4355C34.4172 41.2443 34.672 40.8417 34.672 40.4001V39.7107ZM34.2095 38.7916C33.9542 38.7916 33.747 38.9975 33.747 39.2512V40.4001C33.747 40.4883 33.6962 40.5687 33.6162 40.6073C33.5357 40.6455 33.4409 40.6344 33.3715 40.5793L31.2491 38.8922C31.1668 38.827 31.0651 38.7916 30.9601 38.7916H27.7347C27.6122 38.7916 27.4942 38.7433 27.4077 38.6569C27.3208 38.571 27.2722 38.4538 27.2722 38.332V36.0342C27.2722 35.9124 27.3208 35.7952 27.4077 35.7093C27.4942 35.6229 27.6122 35.5746 27.7347 35.5746H35.1345C35.257 35.5746 35.375 35.6229 35.4615 35.7093C35.5484 35.7952 35.597 35.9124 35.597 36.0342V38.332C35.597 38.4538 35.5484 38.571 35.4615 38.6569C35.375 38.7433 35.257 38.7916 35.1345 38.7916H34.2095Z" fill="white"/>
<mask id="path-21-inside-2_327_244" fill="white">
<path fill-rule="evenodd" clip-rule="evenodd" d="M27.2726 43.8466H35.5974C35.8528 43.8466 36.0601 43.6407 36.0601 43.3871C36.0601 43.1334 35.8528 42.9275 35.5974 42.9275H27.2726C27.0172 42.9275 26.8099 43.1334 26.8099 43.3871C26.8099 43.6407 27.0172 43.8466 27.2726 43.8466Z"/>
</mask>
<path d="M27.2726 46.8466H35.5974V40.8466H27.2726V46.8466ZM35.5974 46.8466C37.4907 46.8466 39.0601 45.3165 39.0601 43.3871H33.0601C33.0601 41.965 34.2149 40.8466 35.5974 40.8466V46.8466ZM39.0601 43.3871C39.0601 41.4576 37.4907 39.9275 35.5974 39.9275V45.9275C34.2149 45.9275 33.0601 44.8092 33.0601 43.3871H39.0601ZM35.5974 39.9275H27.2726V45.9275H35.5974V39.9275ZM27.2726 39.9275C25.3793 39.9275 23.8099 41.4576 23.8099 43.3871H29.8099C29.8099 44.8092 28.655 45.9275 27.2726 45.9275V39.9275ZM23.8099 43.3871C23.8099 45.3165 25.3793 46.8466 27.2726 46.8466V40.8466C28.655 40.8466 29.8099 41.965 29.8099 43.3871H23.8099Z" fill="black" mask="url(#path-21-inside-2_327_244)"/>
</svg>
