<svg width="141" height="186" viewBox="0 0 141 186" fill="none" xmlns="http://www.w3.org/2000/svg">
<path d="M49.2349 50.8731L49.2349 50.8729C48.9397 49.584 48.6247 48.2075 48.3835 47.1532L48.2546 46.5898H92.7454L92.6165 47.1532C92.3753 48.2075 92.0603 49.584 91.7651 50.8729L91.765 50.8731C91.3922 52.5026 89.4894 53.9305 86.9618 53.9305H54.0382C51.5106 53.9305 49.6078 52.5026 49.2349 50.8731Z" stroke="white" stroke-width="2"/>
<path fill-rule="evenodd" clip-rule="evenodd" d="M52.875 95.4067V102.704C52.875 104.388 53.8473 105.921 55.3719 106.65C56.8994 107.38 58.7118 107.173 60.0337 106.122L73.5139 95.4067H94C95.5569 95.4067 97.0521 94.7908 98.1536 93.6962C99.2552 92.6016 99.875 91.1159 99.875 89.5688C99.875 85.2254 99.875 79.3175 99.875 74.9741C99.875 73.4271 99.2552 71.9413 98.1536 70.8467C97.0521 69.7521 95.5569 69.1362 94 69.1362C82.7435 69.1362 58.2565 69.1362 47 69.1362C45.4431 69.1362 43.9479 69.7521 42.8464 70.8467C41.7448 71.9413 41.125 73.4271 41.125 74.9741C41.125 79.3175 41.125 85.2254 41.125 89.5688C41.125 91.1159 41.7448 92.6016 42.8464 93.6962C43.9479 94.7908 45.4431 95.4067 47 95.4067H52.875Z" fill="#11907C"/>
<path fill-rule="evenodd" clip-rule="evenodd" d="M88.125 145.028V152.326C88.125 154.01 87.1527 155.542 85.6281 156.272C84.1006 157.002 82.2882 156.794 80.9663 155.744L67.4861 145.028H47C45.4431 145.028 43.9479 144.412 42.8464 143.318C41.7448 142.223 41.125 140.737 41.125 139.19C41.125 134.847 41.125 128.939 41.125 124.596C41.125 123.049 41.7448 121.563 42.8464 120.468C43.9479 119.374 45.4431 118.758 47 118.758C58.2565 118.758 82.7435 118.758 94 118.758C95.5569 118.758 97.0521 119.374 98.1536 120.468C99.2552 121.563 99.875 123.049 99.875 124.596C99.875 128.939 99.875 134.847 99.875 139.19C99.875 140.737 99.2552 142.223 98.1536 143.318C97.0521 144.412 95.5569 145.028 94 145.028H88.125Z" fill="#11907C"/>
<path d="M112.624 57.4604V171.301C112.624 174.665 111.279 177.889 108.885 180.266C106.494 182.643 103.252 183.977 99.8723 183.977H41.124C37.7439 183.977 34.5023 182.643 32.1111 180.266C29.7175 177.889 28.3727 174.665 28.3727 171.301V57.4604C28.3727 54.0967 29.7174 50.872 32.1108 48.4952L112.624 57.4604ZM112.624 57.4604C112.624 54.0967 111.279 50.872 108.886 48.4952M112.624 57.4604L108.886 48.4952M108.886 48.4952C106.494 46.1186 103.253 44.7847 99.8723 44.7847H41.124C37.7439 44.7847 34.5023 46.1185 32.1111 48.4949L108.886 48.4952Z" stroke="white" stroke-width="2"/>
<path d="M1.25 69.1357C1.25 61.7743 7.25994 55.791 14.6875 55.791C22.1151 55.791 28.125 61.7743 28.125 69.1357V92.4872C28.125 99.8486 22.1151 105.832 14.6875 105.832C7.25994 105.832 1.25 99.8486 1.25 92.4872V69.1357ZM112.875 69.1357C112.875 61.7743 118.885 55.791 126.312 55.791C133.74 55.791 139.75 61.7743 139.75 69.1357V92.4872C139.75 99.8486 133.74 105.832 126.312 105.832C118.885 105.832 112.875 99.8486 112.875 92.4872V69.1357Z" stroke="white" stroke-width="2.5"/>
<path d="M129.256 57.4599C129.256 57.4599 129.256 47.9529 129.256 37.0273C129.256 17.6835 113.472 2 94.0038 2C79.233 2 61.7772 2 47.0065 2C27.5384 2 11.754 17.6835 11.754 37.0273V57.4599" stroke="white" stroke-width="3"/>
<path d="M70.5005 134.813C72.1228 134.813 73.438 133.507 73.438 131.895C73.438 130.282 72.1228 128.976 70.5005 128.976C68.8782 128.976 67.563 130.282 67.563 131.895C67.563 133.507 68.8782 134.813 70.5005 134.813Z" fill="white"/>
<path d="M85.187 85.1914C83.5647 85.1914 82.2495 83.8846 82.2495 82.2725C82.2495 80.6604 83.5647 79.3535 85.187 79.3535C86.8093 79.3535 88.1245 80.6604 88.1245 82.2725C88.1245 83.8846 86.8093 85.1914 85.187 85.1914Z" fill="white"/>
<path d="M69.9375 84.8379C68.3151 84.8379 67 83.531 67 81.919C67 80.3069 68.3151 79 69.9375 79C71.5598 79 72.875 80.3069 72.875 81.919C72.875 83.531 71.5598 84.8379 69.9375 84.8379Z" fill="white"/>
<path d="M54.9375 84.8379C53.3151 84.8379 52 83.531 52 81.919C52 80.3069 53.3151 79 54.9375 79C56.5598 79 57.875 80.3069 57.875 81.919C57.875 83.531 56.5598 84.8379 54.9375 84.8379Z" fill="white"/>
<path d="M55.813 134.813C57.4353 134.813 58.7505 133.507 58.7505 131.895C58.7505 130.282 57.4353 128.976 55.813 128.976C54.1907 128.976 52.8755 130.282 52.8755 131.895C52.8755 133.507 54.1907 134.813 55.813 134.813Z" fill="white"/>
<path d="M85.1881 134.813C86.8104 134.813 88.1256 133.507 88.1256 131.895C88.1256 130.282 86.8104 128.976 85.1881 128.976C83.5657 128.976 82.2505 130.282 82.2505 131.895C82.2505 133.507 83.5657 134.813 85.1881 134.813Z" fill="white"/>
<path d="M96.9401 173.718H44.065C42.7156 173.718 41.6263 172.631 41.6263 171.299C41.6263 169.967 42.7156 168.88 44.065 168.88H96.9401C98.2896 168.88 99.3789 169.967 99.3789 171.299C99.3789 172.631 98.2896 173.718 96.9401 173.718Z" stroke="white"/>
</svg>
