<svg width="140" height="131" viewBox="0 0 140 131" fill="none" xmlns="http://www.w3.org/2000/svg">
<path d="M96.3851 108.599L105.082 109.819V109.841C105.402 109.886 105.703 110.017 105.95 110.219C106.197 110.421 106.381 110.686 106.481 110.984C106.581 111.282 106.592 111.601 106.514 111.906C106.436 112.21 106.272 112.487 106.04 112.705L99.7459 118.646L101.236 127.038C101.281 127.343 101.237 127.655 101.111 127.938C100.985 128.222 100.78 128.466 100.52 128.644C100.26 128.822 99.954 128.927 99.636 128.948C99.3181 128.968 99.0004 128.904 98.718 128.761L90.9453 124.8L83.1725 128.805C82.8864 128.952 82.5636 129.018 82.2406 128.996C81.9177 128.974 81.6076 128.865 81.3455 128.681C81.0833 128.497 80.8797 128.245 80.7576 127.955C80.6355 127.664 80.5999 127.347 80.6548 127.038L82.0984 118.624L75.8387 112.672C75.6067 112.453 75.4425 112.176 75.3647 111.872C75.2869 111.568 75.2985 111.249 75.3982 110.951C75.498 110.652 75.6819 110.387 75.9292 110.185C76.1764 109.983 76.4771 109.852 76.7973 109.807L85.494 108.588L89.3861 100.957C89.5292 100.677 89.7505 100.44 90.025 100.275C90.2995 100.11 90.6163 100.022 90.9395 100.022C91.2627 100.022 91.5795 100.11 91.854 100.275C92.1285 100.44 92.3498 100.677 92.4929 100.957L96.3851 108.599Z" stroke="white" stroke-width="3"/>
<path d="M50.9728 108.599L59.6695 109.819H59.7157C60.0358 109.864 60.3365 109.994 60.5838 110.197C60.831 110.399 61.0149 110.664 61.1147 110.962C61.2145 111.26 61.2261 111.579 61.1483 111.883C61.0704 112.187 60.9062 112.464 60.6743 112.683L54.3799 118.624L55.8235 127.038C55.8683 127.343 55.8252 127.655 55.6989 127.938C55.5726 128.222 55.3681 128.466 55.1079 128.644C54.8476 128.822 54.5417 128.927 54.2237 128.948C53.9058 128.968 53.5882 128.904 53.3058 128.761L45.533 124.8L37.7603 128.805C37.4741 128.952 37.1513 129.018 36.8284 128.996C36.5054 128.974 36.1953 128.865 35.9332 128.681C35.671 128.497 35.4674 128.245 35.3453 127.955C35.2232 127.664 35.1876 127.347 35.2425 127.038L36.7324 118.624L30.4379 112.683C30.206 112.464 30.0418 112.187 29.964 111.883C29.8861 111.579 29.8977 111.26 29.9975 110.962C30.0973 110.664 30.2812 110.399 30.5284 110.197C30.7757 109.994 31.0764 109.864 31.3965 109.819L40.0817 108.599L43.9738 100.968C44.1169 100.688 44.3382 100.451 44.6127 100.286C44.8873 100.121 45.204 100.033 45.5272 100.033C45.8504 100.033 46.1672 100.121 46.4417 100.286C46.7162 100.451 46.9375 100.688 47.0806 100.968L50.9728 108.599Z" stroke="white" stroke-width="3"/>
<path d="M79.4004 81.3099C79.1141 81.8668 79.0604 82.512 79.2508 83.1075C79.4412 83.7029 79.8605 84.2013 80.4191 84.496L87.8091 88.3832C88.2123 88.595 88.6681 88.6903 89.1239 88.658C89.5797 88.6258 90.017 88.4673 90.3854 88.201C90.7538 87.9346 91.0383 87.5711 91.2062 87.1524C91.3741 86.7337 91.4185 86.2767 91.3343 85.8342L87.8738 65.9843L102.524 51.9174C102.849 51.6064 103.079 51.212 103.188 50.7789C103.297 50.3458 103.281 49.8913 103.141 49.4669C103.001 49.0425 102.744 48.665 102.398 48.3773C102.051 48.0896 101.63 47.9032 101.182 47.8391L80.9204 44.9396L71.8649 26.8899C71.6646 26.4902 71.3547 26.1536 70.9704 25.9183C70.586 25.6829 70.1425 25.5582 69.69 25.5582C69.2374 25.5582 68.7939 25.6829 68.4096 25.9183C68.0252 26.1536 67.7154 26.4902 67.515 26.8899L58.4595 44.9715L38.214 47.8391C37.7658 47.9032 37.3448 48.0896 36.9986 48.3773C36.6524 48.665 36.3949 49.0425 36.2552 49.4669C36.1155 49.8913 36.0992 50.3458 36.2082 50.7789C36.3172 51.212 36.5471 51.6064 36.8718 51.9174L51.5224 65.9843L48.0619 85.8342C47.9777 86.2767 48.0221 86.7337 48.1899 87.1524C48.3578 87.5711 48.6423 87.9346 49.0107 88.201C49.3791 88.4673 49.8164 88.6258 50.2722 88.658C50.728 88.6903 51.1838 88.595 51.587 88.3832L69.6981 78.9999L80.4191 84.496C80.9895 84.7918 85.253 85.2256 85.8686 85.0374C86.4842 84.8492 87.1855 86.3959 87.4857 85.8339C87.7859 85.272 86.0597 83.2542 85.8686 82.6477C85.6776 82.0413 75.7665 76.7308 75.1961 76.435L70.83 74.1728C70.4807 73.9928 70.0923 73.8987 69.6981 73.8987C69.3038 73.8987 68.9155 73.9928 68.5661 74.1728L53.6892 81.8993L56.5352 65.5701C56.6026 65.1879 56.5745 64.7952 56.4534 64.4261C56.3322 64.0569 56.1217 63.7224 55.8399 63.4513L43.8252 51.8855L60.4647 49.4959C60.8539 49.4404 61.2237 49.2925 61.542 49.0649C61.8603 48.8373 62.1177 48.5369 62.292 48.1895L69.6981 33.2623L77.1365 48.1258C77.3108 48.4732 77.5682 48.7736 77.8865 49.0012C78.2048 49.2288 78.5745 49.3767 78.9638 49.4322L95.571 51.8855L83.5239 63.4513C83.2421 63.7224 83.0315 64.0569 82.9104 64.4261C82.7893 64.7952 82.7612 65.1879 82.8286 65.5701L85.6746 81.8993L79.2508 78.6338C78.6871 78.3566 81.4037 79.9789 80.8031 80.1662C80.2025 80.3535 79.6995 80.7636 79.4004 81.3099ZM75.5518 22.5408C75.8897 22.541 76.2239 22.4717 76.533 22.3373C76.8421 22.2028 77.1192 22.0063 77.3467 21.7602C83.4128 15.1819 90.3217 9.40899 97.8995 4.58668C98.1856 4.42591 98.4354 4.20944 98.6338 3.95045C98.8322 3.69146 98.975 3.39538 99.0534 3.08026C99.1319 2.76514 99.1444 2.43759 99.0901 2.11756C99.0359 1.79752 98.9161 1.49172 98.738 1.2188C98.5599 0.945868 98.3273 0.711529 98.0543 0.530063C97.7813 0.348598 97.4736 0.223807 97.15 0.163298C96.8265 0.102789 96.4938 0.107829 96.1723 0.178111C95.8507 0.248393 95.5471 0.382443 95.2799 0.572093C87.3545 5.59869 80.1251 11.6178 73.773 18.4784C73.4564 18.8209 73.2477 19.2467 73.1722 19.704C73.0968 20.1612 73.1578 20.6302 73.348 21.0539C73.5382 21.4776 73.8493 21.8377 74.2434 22.0904C74.6376 22.343 75.0977 22.4774 75.568 22.4771L75.5518 22.5408ZM139.231 4.95309C139.124 4.33404 138.774 3.78141 138.257 3.41472C137.739 3.04803 137.096 2.89674 136.466 2.99359C118.415 6.47004 101.882 15.3229 89.1027 28.3556C88.8425 28.5703 88.6309 28.8364 88.4817 29.1368C88.3324 29.4371 88.2488 29.765 88.2363 30.0992C88.2237 30.4334 88.2825 30.7664 88.4088 31.0768C88.5352 31.3872 88.7262 31.668 88.9696 31.9011C89.213 32.1342 89.5034 32.3143 89.8219 32.4299C90.1404 32.5455 90.48 32.5939 90.8187 32.572C91.1575 32.5502 91.4877 32.4585 91.7882 32.303C92.0887 32.1475 92.3528 31.9316 92.5632 31.6692C104.672 19.3738 120.317 11.0333 137.388 7.77286C138.01 7.63547 138.551 7.26272 138.896 6.73512C139.241 6.20752 139.362 5.56742 139.231 4.95309ZM128.85 28.6264C122.423 30.3492 116.257 32.9045 110.513 36.2254C110.238 36.3844 109.997 36.5952 109.805 36.8458C109.612 37.0964 109.472 37.3818 109.392 37.6858C109.311 37.9898 109.293 38.3064 109.337 38.6176C109.38 38.9287 109.486 39.2283 109.647 39.4992C109.809 39.7702 110.023 40.0071 110.277 40.1966C110.531 40.386 110.821 40.5243 111.13 40.6034C111.438 40.6826 111.76 40.701 112.076 40.6578C112.391 40.6146 112.695 40.5105 112.97 40.3515C118.351 37.2499 124.126 34.8659 130.144 33.2623C130.465 33.193 130.769 33.06 131.036 32.8714C131.304 32.6828 131.53 32.4426 131.7 32.1652C131.871 31.8879 131.982 31.5794 132.027 31.2583C132.073 30.9373 132.052 30.6105 131.965 30.2978C131.878 29.9851 131.728 29.6931 131.523 29.4395C131.318 29.1859 131.063 28.976 130.773 28.8226C130.483 28.6693 130.164 28.5756 129.837 28.5473C129.509 28.5191 129.179 28.5568 128.866 28.6583L128.85 28.6264ZM41.4966 4.58668C49.0744 9.40899 55.9833 15.1819 62.0494 21.7602C62.2516 22.0255 62.5077 22.2464 62.8013 22.4089C63.0949 22.5714 63.4197 22.6719 63.7548 22.7039C64.09 22.736 64.4283 22.6989 64.7482 22.5951C65.068 22.4912 65.3625 22.3229 65.6127 22.1009C65.8629 21.8788 66.0634 21.6078 66.2015 21.3052C66.3395 21.0026 66.4121 20.675 66.4146 20.3432C66.4172 20.0114 66.3495 19.6828 66.216 19.3782C66.0825 19.0736 65.8861 18.7997 65.6393 18.574C59.2876 11.713 52.0581 5.69385 44.1324 0.667681C43.8762 0.424841 43.569 0.240445 43.2325 0.127549C42.896 0.0146536 42.5383 -0.0239828 42.185 0.0143743C41.8316 0.0527314 41.4911 0.167144 41.1876 0.349514C40.8841 0.531884 40.625 0.777753 40.4286 1.06971C40.2323 1.36168 40.1034 1.69259 40.0513 2.03904C39.9991 2.38549 40.0249 2.739 40.1268 3.07454C40.2287 3.41008 40.4042 3.71946 40.6409 3.98077C40.8776 4.24208 41.1698 4.44893 41.4966 4.58668ZM46.8329 31.6692C47.0434 31.9316 47.3074 32.1475 47.6079 32.303C47.9084 32.4585 48.2387 32.5502 48.5774 32.572C48.9161 32.5939 49.2557 32.5455 49.5742 32.4299C49.8928 32.3143 50.1831 32.1342 50.4265 31.9011C50.6699 31.668 50.861 31.3872 50.9873 31.0768C51.1136 30.7664 51.1724 30.4334 51.1599 30.0992C51.1473 29.765 51.0637 29.4371 50.9145 29.1368C50.7652 28.8364 50.5536 28.5703 50.2934 28.3556C48.2236 26.2527 46.0244 24.2454 43.8252 22.3656C43.3363 21.943 42.697 21.7292 42.048 21.771C41.3991 21.8128 40.7936 22.1069 40.3647 22.5886C39.9358 23.0703 39.7187 23.7 39.7612 24.3394C39.8036 24.9787 40.1022 25.5753 40.5911 25.9978C42.7903 27.7821 44.8601 29.6938 46.8329 31.6692ZM34.3169 20.7247C34.8405 20.7373 35.3542 20.5826 35.7811 20.2837C36.2081 19.9848 36.5253 19.5578 36.6855 19.0665C36.8457 18.5752 36.8401 18.046 36.6697 17.5581C36.4992 17.0702 36.173 16.6497 35.7399 16.3596C25.8195 9.78935 14.6631 5.24451 2.92984 2.99359C2.6113 2.93397 2.28397 2.93673 1.96653 3.00174C1.64908 3.06674 1.34774 3.19271 1.07971 3.37245C0.811676 3.55219 0.582204 3.78217 0.404393 4.04928C0.226582 4.31639 0.103914 4.61538 0.0433925 4.92919C-0.0171286 5.243 -0.0143151 5.56549 0.0516676 5.87823C0.11765 6.19097 0.245513 6.48784 0.427954 6.7519C0.610395 7.01596 0.843842 7.24203 1.11497 7.41721C1.38609 7.59238 1.68958 7.71323 2.00812 7.77286C13.077 9.88913 23.6052 14.1626 32.9747 20.3423C33.374 20.5976 33.841 20.7306 34.3169 20.7247ZM27.6546 40.6702C28.1853 40.6683 28.7008 40.4949 29.1219 40.1768C29.5431 39.8586 29.8467 39.4131 29.9862 38.9086C30.1256 38.4041 30.0933 37.8685 29.8942 37.3838C29.695 36.8992 29.34 36.4922 28.8836 36.2254C23.1395 32.9038 16.9732 30.3485 10.5462 28.6264C9.92217 28.4574 9.25557 28.5395 8.69303 28.8547C8.13049 29.1699 7.71808 29.6924 7.54653 30.3071C7.37499 30.9219 7.45835 31.5786 7.77828 32.1328C8.09822 32.687 8.62852 33.0933 9.25253 33.2623C15.2655 34.8721 21.0349 37.2614 26.4095 40.3675C26.7892 40.5773 27.2194 40.6819 27.6546 40.6702Z" fill="#11907C"/>
</svg>
