<svg width="65" height="65" viewBox="0 0 65 65" fill="none" xmlns="http://www.w3.org/2000/svg">
<g filter="url(#filter0_b_615_344)">
<rect width="65" height="65" rx="17" fill="#AEAEAE" fill-opacity="0.24"/>
</g>
<path d="M50.4195 21.6422C51.7258 23.4727 52.7313 25.5008 53.393 27.6492C53.393 27.6492 54.3555 30.7344 54.3555 34C54.3555 45.7906 44.7906 55.3555 33 55.3555C21.2094 55.3555 11.6445 45.7906 11.6445 34C11.6445 22.2094 21.2094 12.6445 33 12.6445C36.1367 12.6445 39.3508 13.607 39.3508 13.607C42.6422 14.6641 45.6414 16.4773 48.0992 18.9008" fill="#0E263D"/>
<path d="M46.6898 25.3547C47.1711 26.1109 47.5836 26.893 47.9273 27.718C48.1938 28.3453 48.4172 28.9898 48.5977 29.643C48.5977 29.643 49.1906 31.7656 49.1906 34C49.1906 42.9289 41.9203 50.1992 32.9914 50.1992C24.0625 50.1992 16.8008 42.9289 16.8008 34C16.8008 25.0711 24.0711 17.8008 33 17.8008C35.1227 17.8008 37.357 18.3938 37.357 18.3938C40.0297 19.1672 42.4703 20.5938 44.4469 22.5531" fill="#0E263D"/>
<path d="M33 44.4414C38.7666 44.4414 43.4414 39.7666 43.4414 34C43.4414 28.2334 38.7666 23.5586 33 23.5586C27.2334 23.5586 22.5586 28.2334 22.5586 34C22.5586 39.7666 27.2334 44.4414 33 44.4414Z" fill="#11907C"/>
<path d="M33 23.5586C32.3555 23.5586 31.7023 23.6188 31.0664 23.7391C36.7297 24.8047 40.4594 30.2703 39.3937 35.9336C38.5945 40.1617 35.2945 43.4617 31.0664 44.2609C36.7297 45.3266 42.1953 41.5969 43.2609 35.9336C44.3266 30.2703 40.5969 24.8047 34.9336 23.7391C34.2977 23.6188 33.6445 23.5586 33 23.5586Z" fill="#0FA68E"/>
<path d="M33.7305 19.915C34.7984 19.915 35.6641 19.0493 35.6641 17.9814C35.6641 16.9136 34.7984 16.0479 33.7305 16.0479C32.6626 16.0479 31.7969 16.9136 31.7969 17.9814C31.7969 19.0493 32.6626 19.915 33.7305 19.915Z" fill="#AECE44"/>
<path d="M16.9727 34.0947C18.0406 34.0947 18.9062 33.229 18.9062 32.1611C18.9062 31.0932 18.0406 30.2275 16.9727 30.2275C15.9048 30.2275 15.0391 31.0932 15.0391 32.1611C15.0391 33.229 15.9048 34.0947 16.9727 34.0947Z" fill="#11907C"/>
<path d="M38.8867 50.8525C39.9546 50.8525 40.8203 49.9868 40.8203 48.9189C40.8203 47.8511 39.9546 46.9854 38.8867 46.9854C37.8188 46.9854 36.9531 47.8511 36.9531 48.9189C36.9531 49.9868 37.8188 50.8525 38.8867 50.8525Z" fill="#F69531"/>
<path d="M36.532 29.2648C36.532 28.9125 36.2398 28.6203 35.8875 28.6203H30.1039C29.7516 28.6203 29.4594 28.9125 29.4594 29.2648C29.4594 29.6172 29.7516 29.9094 30.1039 29.9094H31.1523C32.3125 29.9094 33.2922 30.7 33.5758 31.7742H30.0953C29.743 31.7742 29.4508 32.0664 29.4508 32.4188C29.4508 32.7711 29.743 33.0633 30.0953 33.0633H33.5758C33.2922 34.1375 32.3125 34.9281 31.1523 34.9281H30.1039C29.8461 34.9281 29.6141 35.0828 29.5109 35.3234C29.4078 35.5641 29.4594 35.8391 29.6398 36.0195L33.8422 40.4195C33.9711 40.5484 34.1344 40.6172 34.3063 40.6172C34.4695 40.6172 34.6242 40.557 34.7531 40.4367C35.0109 40.1875 35.0195 39.7836 34.7703 39.5258L31.582 36.1914C33.2578 36.0023 34.607 34.7133 34.8906 33.0633H35.8789C36.2313 33.0633 36.5234 32.7711 36.5234 32.4188C36.5234 32.0664 36.2313 31.7742 35.8789 31.7742H34.8906C34.7703 31.0695 34.4523 30.425 33.9969 29.9094H35.8789C36.2484 29.9094 36.532 29.6258 36.532 29.2648ZM50.9437 21.2727C50.7375 20.9805 50.3336 20.9117 50.0414 21.118C49.7492 21.3242 49.6805 21.7281 49.8867 22.0203C51.15 23.7992 52.1211 25.7586 52.7742 27.8469C52.7828 27.8727 53.7023 30.8719 53.7023 34.0086C53.7023 39.543 51.5453 44.7422 47.6352 48.6523C43.725 52.5625 38.5344 54.7109 33 54.7109C27.4656 54.7109 22.2664 52.5539 18.3562 48.6437C14.4461 44.7336 12.2891 39.5344 12.2891 34C12.2891 28.4656 14.4461 23.2664 18.3562 19.3562C22.2664 15.4461 27.4656 13.2891 33 13.2891C35.9477 13.2891 39.0156 14.1828 39.1617 14.2172C42.1352 15.1711 44.8937 16.7867 47.1797 18.9094L44.4383 21.6508C42.4703 19.8547 40.0984 18.5141 37.5375 17.775C37.5289 17.775 37.5289 17.775 37.5203 17.775C37.4945 17.7664 36.9961 17.6375 36.257 17.5C36.025 16.3141 34.9766 15.4117 33.7219 15.4117C32.5531 15.4117 31.5648 16.1937 31.2555 17.2508C27.8438 17.6031 24.6641 18.9695 22.0344 21.2297C19.4477 23.4555 17.6172 26.343 16.7406 29.6C15.4258 29.7117 14.3859 30.8203 14.3859 32.1695C14.3859 33.3125 15.1336 34.2836 16.1648 34.6188C16.4914 43.6078 23.9336 50.8438 33 50.8438H33.0086C34.2805 50.8438 35.5438 50.6977 36.7812 50.4141C37.2453 51.0672 38.0187 51.4969 38.8781 51.4969C40.2961 51.4969 41.4562 50.3367 41.4562 48.9188C41.4562 48.7984 41.4477 48.6867 41.4305 48.575C46.6211 45.5672 49.8352 40.0328 49.8352 34C49.8352 31.7055 49.2422 29.557 49.2164 29.4711C49.0273 28.7922 48.7867 28.1133 48.5117 27.4602C48.1508 26.6094 47.7125 25.7844 47.2227 25.0023C47.0336 24.7016 46.6297 24.6156 46.3289 24.8047C46.0281 24.9937 45.9422 25.3977 46.1312 25.6984C46.5867 26.4203 46.9906 27.1852 47.3258 27.9672C47.5836 28.5688 47.7984 29.1875 47.9703 29.8148C47.9789 29.832 48.5461 31.8859 48.5461 34C48.5461 39.5086 45.6414 44.5703 40.932 47.3719C40.4594 46.7445 39.7117 46.3406 38.8695 46.3406C37.4516 46.3406 36.2914 47.5008 36.2914 48.9188C36.2914 49.0133 36.3 49.1078 36.3086 49.1937C35.2258 49.4344 34.1086 49.5547 33 49.5547C24.6727 49.5547 17.8234 42.9375 17.4625 34.6961C18.6484 34.4641 19.5508 33.4156 19.5508 32.1695C19.5508 31.1211 18.9234 30.2188 18.0211 29.8148C18.8461 26.8586 20.5219 24.2375 22.8766 22.2094C25.257 20.1641 28.1273 18.9094 31.2125 18.557C31.4703 19.7086 32.5016 20.568 33.7305 20.568C34.8734 20.568 35.8359 19.8289 36.1797 18.7977C36.7555 18.9094 37.1422 19.0125 37.1937 19.0211C39.5484 19.7 41.7227 20.9203 43.5273 22.5703L40.3734 25.7242C38.4055 23.9797 35.8273 22.9141 33 22.9141C26.8898 22.9141 21.9141 27.8898 21.9141 34C21.9141 40.1102 26.8898 45.0859 33 45.0859C39.1102 45.0859 44.0859 40.1102 44.0859 34C44.0859 31.1727 43.0203 28.5945 41.2758 26.6352L54.8109 13.1C55.0602 12.8508 55.0602 12.4383 54.8109 12.1891C54.5617 11.9398 54.1492 11.9398 53.9 12.1891L48.0906 17.9984C45.6586 15.7297 42.7195 14.0023 39.5484 12.9883H39.5398C39.4023 12.9453 36.1969 12 33 12C27.1219 12 21.5961 14.2859 17.4453 18.4453C13.2859 22.5961 11 28.1219 11 34C11 39.8781 13.2859 45.4039 17.4453 49.5547C21.6047 53.7141 27.1219 56 33 56C38.8781 56 44.4039 53.7141 48.5547 49.5547C52.7055 45.3953 55 39.8781 55 34C55 30.6742 54.0547 27.5891 54.0117 27.4602C53.3242 25.243 52.293 23.1633 50.9437 21.2727ZM38.8867 47.6297C39.6 47.6297 40.1758 48.2055 40.1758 48.9188C40.1758 49.632 39.6 50.2078 38.8867 50.2078C38.1734 50.2078 37.5977 49.632 37.5977 48.9188C37.5977 48.2055 38.1734 47.6297 38.8867 47.6297ZM18.2617 32.1609C18.2617 32.8742 17.6859 33.45 16.9727 33.45C16.2594 33.45 15.6836 32.8742 15.6836 32.1609C15.6836 31.4477 16.2594 30.8719 16.9727 30.8719C17.6859 30.8719 18.2617 31.4477 18.2617 32.1609ZM33.7305 19.2703C33.0172 19.2703 32.4414 18.6945 32.4414 17.9812C32.4414 17.268 33.0172 16.6922 33.7305 16.6922C34.4438 16.6922 35.0195 17.268 35.0195 17.9812C35.0195 18.6945 34.4352 19.2703 33.7305 19.2703ZM42.7969 34C42.7969 39.4055 38.4055 43.7969 33 43.7969C27.5945 43.7969 23.2031 39.4055 23.2031 34C23.2031 28.5945 27.5945 24.2031 33 24.2031C38.4055 24.2031 42.7969 28.5945 42.7969 34Z" fill="white"/>
<defs>
<filter id="filter0_b_615_344" x="-4" y="-4" width="73" height="73" filterUnits="userSpaceOnUse" color-interpolation-filters="sRGB">
<feFlood flood-opacity="0" result="BackgroundImageFix"/>
<feGaussianBlur in="BackgroundImage" stdDeviation="2"/>
<feComposite in2="SourceAlpha" operator="in" result="effect1_backgroundBlur_615_344"/>
<feBlend mode="normal" in="SourceGraphic" in2="effect1_backgroundBlur_615_344" result="shape"/>
</filter>
</defs>
</svg>
