<svg width="78" height="78" viewBox="0 0 78 78" fill="none" xmlns="http://www.w3.org/2000/svg">
<path d="M71.0667 50.2667C71.0667 45.5 67.1667 41.6 62.4 41.6C57.6333 41.6 53.7333 45.5 53.7333 50.2667C53.7333 55.0333 57.6333 58.9333 62.4 58.9333C67.1667 58.9333 71.0667 55.0333 71.0667 50.2667ZM62.4 55.4667C59.54 55.4667 57.2 53.1267 57.2 50.2667C57.2 47.4067 59.54 45.0667 62.4 45.0667C65.26 45.0667 67.6 47.4067 67.6 50.2667C67.6 53.1267 65.26 55.4667 62.4 55.4667ZM62.4 58.9333C59.1067 58.9333 55.9867 59.9733 53.4733 61.7933C51.1333 56.0733 45.5 52 39 52C32.5 52 26.8667 56.0733 24.5267 61.7933C22.0133 60.06 18.8933 58.9333 15.6 58.9333C7.02 58.9333 0 65.9533 0 74.5333V76.2667C0 77.22 0.78 78 1.73333 78H76.2667C77.22 78 78 77.22 78 76.2667V74.5333C78 65.9533 70.98 58.9333 62.4 58.9333ZM23.4 67.6V74.5333H3.46667C3.46667 67.86 8.92667 62.4 15.6 62.4C18.6333 62.4 21.4067 63.5267 23.5733 65.4333C23.4867 66.1267 23.4 66.82 23.4 67.6ZM51.1333 74.5333H26.8667V67.6C26.8667 60.9267 32.3267 55.4667 39 55.4667C45.6733 55.4667 51.1333 60.9267 51.1333 67.6V74.5333ZM54.6 74.5333V67.6C54.6 66.82 54.5133 66.1267 54.4267 65.4333C56.5933 63.6133 59.3667 62.4 62.4 62.4C69.0733 62.4 74.5333 67.86 74.5333 74.5333H54.6ZM24.2667 50.2667C24.2667 45.5 20.3667 41.6 15.6 41.6C10.8333 41.6 6.93333 45.5 6.93333 50.2667C6.93333 55.0333 10.8333 58.9333 15.6 58.9333C20.3667 58.9333 24.2667 55.0333 24.2667 50.2667ZM15.6 55.4667C12.74 55.4667 10.4 53.1267 10.4 50.2667C10.4 47.4067 12.74 45.0667 15.6 45.0667C18.46 45.0667 20.8 47.4067 20.8 50.2667C20.8 53.1267 18.46 55.4667 15.6 55.4667ZM47.6667 43.3333C47.6667 38.5667 43.7667 34.6667 39 34.6667C34.2333 34.6667 30.3333 38.5667 30.3333 43.3333C30.3333 48.1 34.2333 52 39 52C43.7667 52 47.6667 48.1 47.6667 43.3333ZM39 48.5333C36.14 48.5333 33.8 46.1933 33.8 43.3333C33.8 40.4733 36.14 38.1333 39 38.1333C41.86 38.1333 44.2 40.4733 44.2 43.3333C44.2 46.1933 41.86 48.5333 39 48.5333ZM6.84667 17.7667L5.54667 25.6533C5.46 26.3467 5.72 26.9533 6.24 27.3867C6.76 27.7333 7.54 27.82 8.06 27.4733L14.7333 23.8333L21.4067 27.4733C21.6667 27.6467 21.9267 27.6467 22.2733 27.6467C22.62 27.6467 22.9667 27.56 23.2267 27.3C23.7467 26.9533 24.0933 26.26 23.92 25.5667L22.62 17.68L26.8667 13.3467L31.1133 17.68L29.8133 25.5667C29.7267 26.26 29.9867 26.8667 30.5067 27.3C31.0267 27.6467 31.8067 27.7333 32.3267 27.3867L39 23.7467L45.6733 27.3867C45.9333 27.56 46.1933 27.56 46.54 27.56C46.8867 27.56 47.2333 27.4733 47.4933 27.2133C48.0133 26.8667 48.36 26.1733 48.1867 25.48L46.8867 17.5933L51.1333 13.26L55.38 17.5933L54.08 25.48C53.9933 26.1733 54.2533 26.78 54.7733 27.2133C55.2933 27.56 56.0733 27.6467 56.5933 27.3L63.2667 23.66L69.94 27.3C70.2 27.4733 70.46 27.4733 70.8067 27.4733C71.1533 27.4733 71.5 27.3867 71.76 27.1267C72.28 26.78 72.6267 26.0867 72.4533 25.3933L71.1533 17.5067L76.6133 11.8733C77.0467 11.44 77.22 10.7467 77.0467 10.14C76.8733 9.53333 76.2667 9.1 75.66 9.01333L68.2067 7.88667L64.8267 0.78C64.5667 0.433333 63.96 0 63.2667 0C62.5733 0 61.9667 0.433333 61.7067 0.953333L58.3267 8.06L51.1333 9.27333L43.94 8.14667L40.56 1.04C40.3 0.433333 39.6933 0 39 0C38.3067 0 37.7 0.433333 37.44 0.953333L34.06 8.06L26.8667 9.27333L19.6733 8.14667L16.2933 1.04C16.0333 0.433333 15.4267 0 14.7333 0C14.04 0 13.4333 0.433333 13.1733 0.953333L9.79333 8.06L2.34 9.18667C1.73333 9.27333 1.12667 9.70667 0.953333 10.3133C0.78 10.92 0.866667 11.6133 1.38667 12.0467L6.84667 17.7667ZM59.8 11.44C60.4067 11.3533 60.84 11.0067 61.1 10.4867L63.2667 5.80667L65.4333 10.4867C65.6933 11.0067 66.1267 11.3533 66.7333 11.44L71.76 12.22L68.0333 16.0333C67.6 16.4667 67.4267 16.9867 67.6 17.5067L68.4667 22.7933L64.1333 20.3667C63.8733 20.1933 63.6133 20.1933 63.2667 20.1933C62.92 20.1933 62.66 20.28 62.4 20.3667L58.0667 22.7933L58.9333 17.5067C59.02 16.9867 58.8467 16.38 58.5 16.0333L54.7733 12.22L59.8 11.44ZM35.5333 11.44C36.14 11.3533 36.5733 11.0067 36.8333 10.4867L39 5.80667L41.1667 10.4867C41.4267 11.0067 41.86 11.3533 42.4667 11.44L47.4933 12.22L43.7667 16.0333C43.3333 16.4667 43.16 16.9867 43.3333 17.5067L44.2 22.7933L39.8667 20.3667C39.6067 20.1933 39.3467 20.1933 39 20.1933C38.6533 20.1933 38.3933 20.28 38.1333 20.3667L33.8 22.7933L34.6667 17.5067C34.7533 16.9867 34.58 16.38 34.2333 16.0333L30.5067 12.22L35.5333 11.44ZM11.2667 11.44C11.8733 11.3533 12.3067 11.0067 12.5667 10.4867L14.7333 5.80667L16.9 10.4867C17.16 11.0067 17.5933 11.3533 18.2 11.44L23.2267 12.22L19.5 16.0333C19.0667 16.4667 18.8933 16.9867 19.0667 17.5067L19.9333 22.7933L15.6 20.3667C15.34 20.1933 15.08 20.1933 14.7333 20.1933C14.3867 20.1933 14.1267 20.28 13.8667 20.3667L9.53333 22.7933L10.4 17.5067C10.4867 16.9867 10.3133 16.38 9.96667 16.0333L6.24 12.22L11.2667 11.44Z" fill="url(#paint0_linear_557_218)"/>
<defs>
<linearGradient id="paint0_linear_557_218" x1="39" y1="0" x2="39" y2="78" gradientUnits="userSpaceOnUse">
<stop stop-color="#11907C"/>
<stop offset="1" stop-color="#0B7BAE"/>
</linearGradient>
</defs>
</svg>
