<svg width="99" height="98" viewBox="0 0 99 98" fill="none" xmlns="http://www.w3.org/2000/svg">
<path d="M94.5336 30.134C94.4699 29.7325 94.2552 29.3703 93.9335 29.1217C93.6118 28.873 93.2073 28.7566 92.8026 28.7962C91.089 28.9616 89.5047 29.7803 88.3785 31.0824C87.2523 32.3846 86.6706 34.0703 86.7539 35.7899L87.0131 46.3897C85.6033 46.5515 84.2578 47.0689 83.1028 47.8934C81.9478 48.7178 81.0214 49.8223 80.4104 51.1031L76.4897 59.3341C75.8889 60.5914 75.0131 61.6974 73.927 62.5704L73.1126 63.2235C71.083 64.8427 69.4592 66.913 68.3702 69.2699C67.2812 71.6268 66.7572 74.2052 66.8397 76.8002L65.4482 76.1376C65.0662 75.9557 64.6276 75.933 64.2288 76.0745C63.8301 76.2159 63.5039 76.51 63.322 76.892L59.0235 85.9174C58.8417 86.2994 58.8189 86.738 58.9604 87.1367C59.1019 87.5355 59.396 87.8617 59.7779 88.0436L79.5838 97.476C79.9658 97.6579 80.4044 97.6806 80.8032 97.5391C81.2019 97.3977 81.5281 97.1036 81.71 96.7216L86.0085 87.6962C86.1904 87.3142 86.2131 86.8756 86.0716 86.4769C85.9301 86.0781 85.636 85.7519 85.2541 85.57L84.4821 85.2023L84.2767 82.4595C84.1949 81.3925 84.531 80.3355 85.214 79.5117L95.4706 67.1C95.4931 67.0725 95.5151 67.0444 95.5358 67.0154C97.6674 64.0392 98.7913 60.4594 98.7434 56.7989C98.7422 56.7233 98.7355 56.648 98.7235 56.5734L94.5336 30.134ZM79.5153 93.9098L62.5901 85.849L65.5168 79.7042L82.4419 87.765L79.5153 93.9098ZM92.9759 65.1102L82.7554 77.4795C81.546 78.9376 80.9507 80.8089 81.0954 82.6978L81.1646 83.6225L70.1901 78.3958C69.8155 76.0356 70.0734 73.6183 70.9375 71.3903C71.8016 69.1623 73.241 67.2033 75.1089 65.7129L75.9234 65.0598C77.3844 63.8853 78.5626 62.3973 79.3709 60.7059L83.2908 52.4751C83.7628 51.4866 84.5354 50.6728 85.4981 50.1501C86.4607 49.6274 87.5641 49.4227 88.6501 49.5653L83.0005 61.4278C82.909 61.6171 82.8559 61.8226 82.8442 62.0325C82.8324 62.2424 82.8623 62.4526 82.932 62.6509C83.0018 62.8492 83.1101 63.0318 83.2506 63.1881C83.3911 63.3445 83.5612 63.4715 83.751 63.5619C83.9408 63.6523 84.1466 63.7043 84.3566 63.7149C84.5666 63.7255 84.7765 63.6945 84.9745 63.6237C85.1724 63.5529 85.3544 63.4436 85.51 63.3022C85.6656 63.1608 85.7917 62.9901 85.881 62.7998L92.3248 49.2701C92.5067 48.8881 92.5294 48.4495 92.3879 48.0508C92.2465 47.6521 91.9524 47.3258 91.5704 47.1439C91.1327 46.9361 90.6778 46.7667 90.2108 46.6376L89.9436 35.6926C89.9436 35.6788 89.9436 35.6649 89.9422 35.6509C89.9088 35.009 90.0521 34.3702 90.3566 33.8041C90.6611 33.238 91.1151 32.7663 91.6691 32.4403L95.5554 56.9582C95.57 59.8784 94.6681 62.7297 92.9767 65.1102H92.9759Z" fill="url(#paint0_linear_557_191)"/>
<path d="M35.4239 76.892C35.242 76.51 34.9158 76.2159 34.5171 76.0745C34.1183 75.933 33.6797 75.9557 33.2977 76.1376L31.9062 76.8002C31.9887 74.2053 31.4647 71.6269 30.3758 69.27C29.2869 66.9132 27.6631 64.8428 25.6335 63.2237L24.8187 62.5702C23.7327 61.6972 22.8569 60.5912 22.2562 59.3339L18.3361 51.1031C17.7251 49.8223 16.7986 48.7178 15.6437 47.8933C14.4887 47.0687 13.1432 46.5512 11.7334 46.3893L11.9926 35.7899C12.076 34.0703 11.4942 32.3846 10.368 31.0824C9.24178 29.7803 7.65755 28.9616 5.9439 28.7962C5.53922 28.7566 5.1347 28.873 4.81298 29.1217C4.49127 29.3703 4.27665 29.7325 4.21296 30.134L0.0214113 56.5736C0.0093849 56.6482 0.00272052 56.7235 0.0014695 56.7991C-0.0464245 60.4596 1.07752 64.0394 3.20909 67.0156C3.22904 67.0446 3.25177 67.0727 3.2743 67.1002L13.5309 79.5119C14.2139 80.3357 14.55 81.3927 14.4682 82.4597L14.2628 85.2025L13.4908 85.5702C13.1089 85.7521 12.8148 86.0783 12.6733 86.4771C12.5318 86.8758 12.5546 87.3144 12.7364 87.6964L17.0349 96.7218C17.2168 97.1038 17.543 97.3979 17.9417 97.5393C18.3405 97.6808 18.7791 97.6581 19.1611 97.4762L38.967 88.0438C39.3489 87.8619 39.643 87.5356 39.7845 87.1369C39.926 86.7382 39.9033 86.2996 39.7214 85.9176L35.4239 76.892ZM15.9905 77.4795L5.76921 65.1102C4.07798 62.7296 3.17622 59.8784 3.19095 56.9582L7.07659 32.4403C7.63062 32.7663 8.08461 33.238 8.38911 33.8041C8.69361 34.3702 8.83696 35.009 8.80354 35.6509C8.80354 35.6649 8.80254 35.6788 8.80215 35.6926L8.53493 46.6374C8.06796 46.7667 7.61305 46.9362 7.1753 47.1439C6.79332 47.3258 6.49926 47.6521 6.35778 48.0508C6.21631 48.4495 6.23901 48.8881 6.42091 49.2701L12.8647 62.7998C12.954 62.9901 13.0801 63.1608 13.2357 63.3022C13.3913 63.4436 13.5733 63.5529 13.7712 63.6237C13.9692 63.6945 14.1792 63.7255 14.3891 63.7149C14.5991 63.7043 14.8049 63.6523 14.9947 63.5619C15.1845 63.4715 15.3546 63.3445 15.4951 63.1881C15.6357 63.0318 15.7439 62.8492 15.8137 62.6509C15.8834 62.4526 15.9133 62.2424 15.9015 62.0325C15.8898 61.8226 15.8367 61.6171 15.7453 61.4278L10.0962 49.5652C11.1822 49.4229 12.2855 49.6277 13.2481 50.1503C14.2108 50.673 14.9834 51.4867 15.4555 52.4751L19.3754 60.7059C20.1837 62.3972 21.3618 63.8851 22.8228 65.0596L23.6376 65.7128C25.5055 67.2033 26.9448 69.1624 27.8089 71.3904C28.6729 73.6184 28.9308 76.0356 28.5562 78.3958L17.5817 83.6225L17.6509 82.6978C17.7955 80.8088 17.2001 78.9376 15.9905 77.4795ZM19.2303 93.9098L16.304 87.765L33.2291 79.7041L36.1558 85.849L19.2303 93.9098Z" fill="url(#paint1_linear_557_191)"/>
<path d="M59.068 51.4082C59.5052 51.3974 59.9217 51.2201 60.2324 50.9124C60.5431 50.6048 60.7246 50.1901 60.7397 49.753V48.4786H70.1251C70.3335 48.4781 70.5398 48.4363 70.732 48.3557C70.9242 48.2751 71.0986 48.1573 71.245 48.009C71.3915 47.8607 71.5072 47.6849 71.5853 47.4916C71.6635 47.2984 71.7026 47.0917 71.7005 46.8832C71.7005 41.695 70.8207 37.5001 69.0299 34.0589C67.1987 30.5396 64.4533 27.8714 60.6662 25.9227C60.6282 18.1411 58.095 10.5768 53.4389 4.34178L50.6604 0.6388C50.5118 0.440476 50.3191 0.279491 50.0975 0.16861C49.8758 0.0577291 49.6314 0 49.3836 0C49.1358 0 48.8914 0.0577291 48.6698 0.16861C48.4482 0.279491 48.2554 0.440476 48.1069 0.6388L45.3294 4.34158C40.6969 10.5469 38.1663 18.0689 38.1059 25.8124C30.6058 29.5633 27.1005 36.2888 27.1003 46.8828C27.1005 47.0877 27.142 47.2903 27.2223 47.4788C27.3026 47.6672 27.42 47.8375 27.5675 47.9796C27.7172 48.1235 27.894 48.2363 28.0877 48.3112C28.2814 48.3862 28.488 48.4219 28.6956 48.4163H38.0062V49.7524C38.0257 50.1914 38.2113 50.6066 38.5254 50.9139C38.8394 51.2212 39.2585 51.3977 39.6978 51.4076H40.2337L40.1998 57.2613V57.3145C40.1933 58.0319 40.4486 58.727 40.9178 59.2697C41.3871 59.8123 42.0381 60.1652 42.7489 60.2623C42.7439 60.382 42.7198 60.5016 42.7196 60.6223C42.7196 65.6011 46.4487 70.0661 48.8716 70.5507C48.9726 70.5614 49.0743 70.5619 49.1753 70.552H49.5343C49.6384 70.5619 49.7432 70.5614 49.8472 70.5507C52.2986 70.0601 56.0798 65.5778 56.0802 60.6071C56.0802 60.5955 56.0802 60.5912 56.0802 60.5796C56.0778 60.4721 56.0726 60.368 56.0678 60.2605C56.7894 60.1713 57.4526 59.8186 57.9299 59.2702C58.4073 58.7217 58.6652 58.0162 58.654 57.2892L58.5473 51.4082H59.068ZM68.5369 45.2873H60.7397V29.5904C65.7252 32.7581 68.2428 37.7258 68.5369 45.2873ZM47.8339 6.25598L49.3588 4.25483L50.9099 6.25618C55.1884 11.9609 57.5163 18.8916 57.5491 26.0224V48.2175H41.1969V27.0043C41.3963 26.8751 41.3963 26.7435 41.1969 26.6117V26.0224C41.2289 18.8918 43.5561 11.961 47.8339 6.25598ZM30.3191 45.2263C30.6078 37.6484 33.0208 32.5581 38.0062 29.4578V45.2263H30.3191ZM49.353 67.3841C48.3402 66.8311 45.8933 64.0453 45.8933 60.6699C45.891 60.5738 45.8943 60.4777 45.9031 60.382H52.8755C52.8819 60.382 52.8865 60.5686 52.8893 60.6845C52.8801 64.1992 50.2634 66.8666 49.353 67.3841ZM55.459 57.1913H43.322L43.4249 51.4082H55.3555L55.459 57.1913Z" fill="url(#paint2_linear_557_191)"/>
<path d="M49.3905 36.2526H49.3921C51.1092 36.2524 52.7559 35.5701 53.97 34.3558C55.1841 33.1415 55.8661 31.4946 55.866 29.7775C55.8659 28.0604 55.1837 26.4136 53.9695 25.1995C52.7552 23.9853 51.1084 23.3032 49.3913 23.3032C47.6742 23.3032 46.0274 23.9853 44.8132 25.1995C43.5989 26.4136 42.9167 28.0604 42.9166 29.7775C42.9165 31.4946 43.5985 33.1415 44.8126 34.3558C46.0267 35.5701 47.6734 36.2524 49.3905 36.2526ZM49.3905 26.539C50.0398 26.539 50.6745 26.7316 51.2144 27.0923C51.7543 27.4531 52.175 27.9659 52.4235 28.5658C52.6719 29.1657 52.7369 29.8257 52.6102 30.4626C52.4835 31.0994 52.1708 31.6844 51.7117 32.1435C51.2525 32.6026 50.6676 32.9152 50.0307 33.0419C49.3939 33.1686 48.7338 33.1035 48.1339 32.8551C47.534 32.6066 47.0213 32.1858 46.6606 31.6459C46.2998 31.106 46.1073 30.4713 46.1073 29.822C46.1082 28.9515 46.4544 28.1169 47.0699 27.5015C47.6855 26.886 48.52 26.5398 49.3905 26.539Z" fill="url(#paint3_linear_557_191)"/>
<defs>
<linearGradient id="paint0_linear_557_191" x1="53.6809" y1="51.434" x2="104.324" y2="66.2811" gradientUnits="userSpaceOnUse">
<stop stop-color="#0B79B7"/>
<stop offset="1" stop-color="#11907C"/>
</linearGradient>
<linearGradient id="paint1_linear_557_191" x1="-5.18768" y1="51.4341" x2="45.4552" y2="66.2811" gradientUnits="userSpaceOnUse">
<stop stop-color="#0B79B7"/>
<stop offset="1" stop-color="#11907C"/>
</linearGradient>
<linearGradient id="paint2_linear_557_191" x1="21.298" y1="23.2101" x2="77.0976" y2="41.0618" gradientUnits="userSpaceOnUse">
<stop stop-color="#0B79B7"/>
<stop offset="1" stop-color="#11907C"/>
</linearGradient>
<linearGradient id="paint3_linear_557_191" x1="41.232" y1="27.5629" x2="55.4492" y2="34.7586" gradientUnits="userSpaceOnUse">
<stop stop-color="#0B79B7"/>
<stop offset="1" stop-color="#11907C"/>
</linearGradient>
</defs>
</svg>
