<svg width="65" height="65" viewBox="0 0 65 65" fill="none" xmlns="http://www.w3.org/2000/svg">
<g filter="url(#filter0_b_414_166)">
<rect width="65" height="65" rx="17" fill="#AEAEAE" fill-opacity="0.24"/>
</g>
<path d="M31.552 51.6749C26.9859 48.8546 22.7413 45.5291 18.8958 41.7592C16.1811 39.0675 14.1078 35.7809 12.8344 32.1505C10.5591 25.0705 13.2077 16.979 20.6023 14.5768C24.5053 13.3511 28.7502 14.1035 32.0142 16.5997C35.2793 14.1063 39.5228 13.3541 43.426 14.5768C50.8206 16.979 53.487 25.0705 51.2117 32.1505C49.9486 35.7775 47.8877 39.0638 45.1858 41.7592C41.3368 45.525 37.0927 48.8501 32.5296 51.6749L32.0319 52L31.552 51.6749Z" fill="#DE6F6F"/>
<path d="M32.0218 52.0002L31.552 51.6751C26.9803 48.855 22.7297 45.5296 18.878 41.7594C16.1504 39.0714 14.0648 35.7846 12.781 32.1507C10.5235 25.0706 13.1721 16.9791 20.5667 14.577C24.4697 13.3512 28.7706 14.1043 32.0218 16.6213V52.0002ZM44.4609 27.9986C44.0591 27.9728 43.685 27.772 43.4261 27.4433C43.1672 27.1147 43.0464 26.687 43.0918 26.2605C43.1353 24.8558 42.336 23.5772 41.1035 23.0797C40.3219 22.8664 39.8485 22.0199 40.0441 21.1852C40.2296 20.3638 40.9987 19.8531 41.7717 20.038C41.8693 20.0542 41.9632 20.0895 42.0487 20.1423C44.5202 21.0933 46.1203 23.653 45.9929 26.4517C45.9889 26.8759 45.8235 27.2801 45.5346 27.5718C45.2458 27.8635 44.8583 28.0175 44.4609 27.9986Z" fill="white"/>
<defs>
<filter id="filter0_b_414_166" x="-4" y="-4" width="73" height="73" filterUnits="userSpaceOnUse" color-interpolation-filters="sRGB">
<feFlood flood-opacity="0" result="BackgroundImageFix"/>
<feGaussianBlur in="BackgroundImage" stdDeviation="2"/>
<feComposite in2="SourceAlpha" operator="in" result="effect1_backgroundBlur_414_166"/>
<feBlend mode="normal" in="SourceGraphic" in2="effect1_backgroundBlur_414_166" result="shape"/>
</filter>
</defs>
</svg>
